<mxfile host="app.diagrams.net" modified="2023-06-06T14:36:35.180Z" agent="Mozilla/5.0 (Windows NT 10.0; Win64; x64) AppleWebKit/537.36 (KHTML, like Gecko) Chrome/114.0.0.0 Safari/537.36" etag="gkwguzjS_f547_iFFbK1" version="21.1.6" type="device" pages="9">
  <diagram name="selectRow" id="gaAtPx0P780vZlFIQzJ6">
    <mxGraphModel dx="1290" dy="619" grid="1" gridSize="10" guides="1" tooltips="1" connect="1" arrows="1" fold="1" page="1" pageScale="1" pageWidth="850" pageHeight="1100" math="0" shadow="0">
      <root>
        <mxCell id="0" />
        <mxCell id="1" parent="0" />
        <mxCell id="lKPR0EWJqiZ5-bT2hnbr-2" value="&lt;font style=&quot;font-size: 36px;&quot;&gt;Start&lt;/font&gt;" style="ellipse;whiteSpace=wrap;html=1;" vertex="1" parent="1">
          <mxGeometry x="170" y="70" width="120" height="80" as="geometry" />
        </mxCell>
        <mxCell id="lKPR0EWJqiZ5-bT2hnbr-3" value="" style="endArrow=classic;html=1;rounded=0;exitX=0.5;exitY=1;exitDx=0;exitDy=0;" edge="1" parent="1" source="lKPR0EWJqiZ5-bT2hnbr-2" target="lKPR0EWJqiZ5-bT2hnbr-5">
          <mxGeometry width="50" height="50" relative="1" as="geometry">
            <mxPoint x="230" y="210" as="sourcePoint" />
            <mxPoint x="233.125" y="150.625" as="targetPoint" />
          </mxGeometry>
        </mxCell>
        <mxCell id="lKPR0EWJqiZ5-bT2hnbr-5" value="&lt;font style=&quot;font-size: 18px;&quot;&gt;while True&lt;/font&gt;" style="rhombus;whiteSpace=wrap;html=1;" vertex="1" parent="1">
          <mxGeometry x="180" y="190" width="100" height="100" as="geometry" />
        </mxCell>
        <mxCell id="lKPR0EWJqiZ5-bT2hnbr-6" value="" style="endArrow=classic;html=1;rounded=0;exitX=0.5;exitY=1;exitDx=0;exitDy=0;" edge="1" parent="1" source="lKPR0EWJqiZ5-bT2hnbr-5" target="lKPR0EWJqiZ5-bT2hnbr-7">
          <mxGeometry width="50" height="50" relative="1" as="geometry">
            <mxPoint x="230" y="510" as="sourcePoint" />
            <mxPoint x="280" y="460" as="targetPoint" />
          </mxGeometry>
        </mxCell>
        <mxCell id="lKPR0EWJqiZ5-bT2hnbr-7" value="&lt;font style=&quot;font-size: 18px;&quot;&gt;Input chooseRow&lt;/font&gt;" style="shape=parallelogram;perimeter=parallelogramPerimeter;whiteSpace=wrap;html=1;fixedSize=1;" vertex="1" parent="1">
          <mxGeometry x="170" y="330" width="120" height="60" as="geometry" />
        </mxCell>
        <mxCell id="lKPR0EWJqiZ5-bT2hnbr-8" value="" style="endArrow=classic;html=1;rounded=0;exitX=0.442;exitY=1.04;exitDx=0;exitDy=0;exitPerimeter=0;" edge="1" parent="1" source="lKPR0EWJqiZ5-bT2hnbr-7" target="lKPR0EWJqiZ5-bT2hnbr-9">
          <mxGeometry width="50" height="50" relative="1" as="geometry">
            <mxPoint x="230" y="490" as="sourcePoint" />
            <mxPoint x="280" y="440" as="targetPoint" />
          </mxGeometry>
        </mxCell>
        <mxCell id="lKPR0EWJqiZ5-bT2hnbr-9" value="&lt;font style=&quot;font-size: 14px;&quot;&gt;choose&amp;lt;=0&lt;br&gt;or&lt;br&gt;chooseRow&amp;gt;size&lt;/font&gt;" style="rhombus;whiteSpace=wrap;html=1;" vertex="1" parent="1">
          <mxGeometry x="165" y="450" width="115" height="110" as="geometry" />
        </mxCell>
        <mxCell id="lKPR0EWJqiZ5-bT2hnbr-11" value="True" style="text;html=1;strokeColor=none;fillColor=none;align=center;verticalAlign=middle;whiteSpace=wrap;rounded=0;" vertex="1" parent="1">
          <mxGeometry x="220" y="290" width="60" height="30" as="geometry" />
        </mxCell>
        <mxCell id="lKPR0EWJqiZ5-bT2hnbr-12" value="" style="endArrow=classic;html=1;rounded=0;exitX=0.5;exitY=1;exitDx=0;exitDy=0;" edge="1" parent="1" source="lKPR0EWJqiZ5-bT2hnbr-9" target="lKPR0EWJqiZ5-bT2hnbr-13">
          <mxGeometry width="50" height="50" relative="1" as="geometry">
            <mxPoint x="230" y="680" as="sourcePoint" />
            <mxPoint x="280" y="630" as="targetPoint" />
          </mxGeometry>
        </mxCell>
        <mxCell id="lKPR0EWJqiZ5-bT2hnbr-13" value="&lt;font style=&quot;font-size: 14px;&quot;&gt;Output&amp;nbsp; choose valid number&lt;/font&gt;" style="shape=parallelogram;perimeter=parallelogramPerimeter;whiteSpace=wrap;html=1;fixedSize=1;" vertex="1" parent="1">
          <mxGeometry x="162.5" y="610" width="120" height="60" as="geometry" />
        </mxCell>
        <mxCell id="lKPR0EWJqiZ5-bT2hnbr-14" value="True" style="text;html=1;strokeColor=none;fillColor=none;align=center;verticalAlign=middle;whiteSpace=wrap;rounded=0;" vertex="1" parent="1">
          <mxGeometry x="210" y="570" width="60" height="30" as="geometry" />
        </mxCell>
        <mxCell id="lKPR0EWJqiZ5-bT2hnbr-15" value="" style="endArrow=classic;html=1;rounded=0;exitX=1;exitY=0.5;exitDx=0;exitDy=0;" edge="1" parent="1" source="lKPR0EWJqiZ5-bT2hnbr-9">
          <mxGeometry width="50" height="50" relative="1" as="geometry">
            <mxPoint x="230" y="570" as="sourcePoint" />
            <mxPoint x="350" y="505" as="targetPoint" />
          </mxGeometry>
        </mxCell>
        <mxCell id="lKPR0EWJqiZ5-bT2hnbr-17" value="for x &lt;br&gt;from size-1 to size*size-1" style="rhombus;whiteSpace=wrap;html=1;" vertex="1" parent="1">
          <mxGeometry x="350" y="450" width="110" height="110" as="geometry" />
        </mxCell>
        <mxCell id="lKPR0EWJqiZ5-bT2hnbr-18" value="False" style="text;html=1;align=center;verticalAlign=middle;resizable=0;points=[];autosize=1;strokeColor=none;fillColor=none;" vertex="1" parent="1">
          <mxGeometry x="282.5" y="480" width="50" height="30" as="geometry" />
        </mxCell>
        <mxCell id="lKPR0EWJqiZ5-bT2hnbr-20" value="" style="endArrow=classic;html=1;rounded=0;exitX=0.5;exitY=1;exitDx=0;exitDy=0;" edge="1" parent="1" source="lKPR0EWJqiZ5-bT2hnbr-17" target="lKPR0EWJqiZ5-bT2hnbr-21">
          <mxGeometry width="50" height="50" relative="1" as="geometry">
            <mxPoint x="390" y="530" as="sourcePoint" />
            <mxPoint x="470" y="610" as="targetPoint" />
          </mxGeometry>
        </mxCell>
        <mxCell id="lKPR0EWJqiZ5-bT2hnbr-21" value="if index &amp;lt;= x" style="rhombus;whiteSpace=wrap;html=1;" vertex="1" parent="1">
          <mxGeometry x="350" y="620" width="110" height="110" as="geometry" />
        </mxCell>
        <mxCell id="lKPR0EWJqiZ5-bT2hnbr-22" value="True" style="text;html=1;align=center;verticalAlign=middle;resizable=0;points=[];autosize=1;strokeColor=none;fillColor=none;" vertex="1" parent="1">
          <mxGeometry x="400" y="570" width="50" height="30" as="geometry" />
        </mxCell>
        <mxCell id="lKPR0EWJqiZ5-bT2hnbr-23" value="" style="endArrow=classic;html=1;rounded=0;exitX=0.5;exitY=1;exitDx=0;exitDy=0;" edge="1" parent="1" source="lKPR0EWJqiZ5-bT2hnbr-21" target="lKPR0EWJqiZ5-bT2hnbr-24">
          <mxGeometry width="50" height="50" relative="1" as="geometry">
            <mxPoint x="390" y="720" as="sourcePoint" />
            <mxPoint x="440" y="670" as="targetPoint" />
          </mxGeometry>
        </mxCell>
        <mxCell id="lKPR0EWJqiZ5-bT2hnbr-24" value="index &amp;lt;= x&lt;br&gt;index &amp;lt;= index - size" style="rounded=0;whiteSpace=wrap;html=1;" vertex="1" parent="1">
          <mxGeometry x="345" y="780" width="120" height="60" as="geometry" />
        </mxCell>
        <mxCell id="lKPR0EWJqiZ5-bT2hnbr-25" value="break?" style="rhombus;whiteSpace=wrap;html=1;" vertex="1" parent="1">
          <mxGeometry x="350" y="890" width="110" height="110" as="geometry" />
        </mxCell>
        <mxCell id="lKPR0EWJqiZ5-bT2hnbr-26" value="" style="endArrow=classic;html=1;rounded=0;exitX=0.5;exitY=1;exitDx=0;exitDy=0;entryX=0.5;entryY=0;entryDx=0;entryDy=0;" edge="1" parent="1" source="lKPR0EWJqiZ5-bT2hnbr-24" target="lKPR0EWJqiZ5-bT2hnbr-25">
          <mxGeometry width="50" height="50" relative="1" as="geometry">
            <mxPoint x="390" y="820" as="sourcePoint" />
            <mxPoint x="440" y="770" as="targetPoint" />
          </mxGeometry>
        </mxCell>
        <mxCell id="lKPR0EWJqiZ5-bT2hnbr-27" value="" style="endArrow=classic;html=1;rounded=0;exitX=1;exitY=0.5;exitDx=0;exitDy=0;" edge="1" parent="1" source="lKPR0EWJqiZ5-bT2hnbr-25" target="lKPR0EWJqiZ5-bT2hnbr-28">
          <mxGeometry width="50" height="50" relative="1" as="geometry">
            <mxPoint x="390" y="820" as="sourcePoint" />
            <mxPoint x="440" y="770" as="targetPoint" />
          </mxGeometry>
        </mxCell>
        <mxCell id="lKPR0EWJqiZ5-bT2hnbr-28" value="index &amp;lt;= index + chooseRow" style="rounded=0;whiteSpace=wrap;html=1;" vertex="1" parent="1">
          <mxGeometry x="530" y="915" width="120" height="60" as="geometry" />
        </mxCell>
        <mxCell id="lKPR0EWJqiZ5-bT2hnbr-29" value="Yes" style="text;html=1;strokeColor=none;fillColor=none;align=center;verticalAlign=middle;whiteSpace=wrap;rounded=0;" vertex="1" parent="1">
          <mxGeometry x="460" y="920" width="60" height="30" as="geometry" />
        </mxCell>
        <mxCell id="lKPR0EWJqiZ5-bT2hnbr-30" value="" style="endArrow=classic;html=1;rounded=0;exitX=1;exitY=0.5;exitDx=0;exitDy=0;" edge="1" parent="1" source="lKPR0EWJqiZ5-bT2hnbr-28" target="lKPR0EWJqiZ5-bT2hnbr-31">
          <mxGeometry width="50" height="50" relative="1" as="geometry">
            <mxPoint x="710" y="1010" as="sourcePoint" />
            <mxPoint x="760" y="960" as="targetPoint" />
          </mxGeometry>
        </mxCell>
        <mxCell id="lKPR0EWJqiZ5-bT2hnbr-31" value="if random[index]&lt;br&gt;=&#39;x&#39;" style="rhombus;whiteSpace=wrap;html=1;" vertex="1" parent="1">
          <mxGeometry x="730" y="890" width="110" height="110" as="geometry" />
        </mxCell>
        <mxCell id="lKPR0EWJqiZ5-bT2hnbr-32" value="" style="endArrow=classic;html=1;rounded=0;exitX=1;exitY=0.5;exitDx=0;exitDy=0;" edge="1" parent="1" source="lKPR0EWJqiZ5-bT2hnbr-21" target="lKPR0EWJqiZ5-bT2hnbr-33">
          <mxGeometry width="50" height="50" relative="1" as="geometry">
            <mxPoint x="360" y="700" as="sourcePoint" />
            <mxPoint x="410" y="650" as="targetPoint" />
          </mxGeometry>
        </mxCell>
        <mxCell id="lKPR0EWJqiZ5-bT2hnbr-33" value="" style="ellipse;whiteSpace=wrap;html=1;aspect=fixed;" vertex="1" parent="1">
          <mxGeometry x="530" y="665" width="20" height="20" as="geometry" />
        </mxCell>
        <mxCell id="lKPR0EWJqiZ5-bT2hnbr-34" value="" style="endArrow=classic;html=1;rounded=0;exitX=0.5;exitY=0;exitDx=0;exitDy=0;" edge="1" parent="1" source="lKPR0EWJqiZ5-bT2hnbr-33" target="lKPR0EWJqiZ5-bT2hnbr-35">
          <mxGeometry width="50" height="50" relative="1" as="geometry">
            <mxPoint x="360" y="700" as="sourcePoint" />
            <mxPoint x="410" y="650" as="targetPoint" />
          </mxGeometry>
        </mxCell>
        <mxCell id="lKPR0EWJqiZ5-bT2hnbr-35" value="" style="ellipse;whiteSpace=wrap;html=1;aspect=fixed;" vertex="1" parent="1">
          <mxGeometry x="530" y="495" width="20" height="20" as="geometry" />
        </mxCell>
        <mxCell id="lKPR0EWJqiZ5-bT2hnbr-36" value="" style="endArrow=classic;html=1;rounded=0;exitX=0;exitY=0.5;exitDx=0;exitDy=0;entryX=1;entryY=0.5;entryDx=0;entryDy=0;" edge="1" parent="1" source="lKPR0EWJqiZ5-bT2hnbr-35" target="lKPR0EWJqiZ5-bT2hnbr-17">
          <mxGeometry width="50" height="50" relative="1" as="geometry">
            <mxPoint x="360" y="700" as="sourcePoint" />
            <mxPoint x="410" y="650" as="targetPoint" />
          </mxGeometry>
        </mxCell>
        <mxCell id="lKPR0EWJqiZ5-bT2hnbr-37" value="False" style="text;html=1;strokeColor=none;fillColor=none;align=center;verticalAlign=middle;whiteSpace=wrap;rounded=0;" vertex="1" parent="1">
          <mxGeometry x="465" y="650" width="60" height="30" as="geometry" />
        </mxCell>
        <mxCell id="lKPR0EWJqiZ5-bT2hnbr-38" value="x + 1" style="text;html=1;strokeColor=none;fillColor=none;align=center;verticalAlign=middle;whiteSpace=wrap;rounded=0;" vertex="1" parent="1">
          <mxGeometry x="490" y="590" width="60" height="30" as="geometry" />
        </mxCell>
        <mxCell id="lKPR0EWJqiZ5-bT2hnbr-39" value="" style="endArrow=classic;html=1;rounded=0;exitX=0.5;exitY=0;exitDx=0;exitDy=0;" edge="1" parent="1" source="lKPR0EWJqiZ5-bT2hnbr-31" target="lKPR0EWJqiZ5-bT2hnbr-40">
          <mxGeometry width="50" height="50" relative="1" as="geometry">
            <mxPoint x="850" y="900" as="sourcePoint" />
            <mxPoint x="900" y="850" as="targetPoint" />
          </mxGeometry>
        </mxCell>
        <mxCell id="lKPR0EWJqiZ5-bT2hnbr-40" value="Output&amp;nbsp;&lt;br&gt;already choosen" style="shape=parallelogram;perimeter=parallelogramPerimeter;whiteSpace=wrap;html=1;fixedSize=1;" vertex="1" parent="1">
          <mxGeometry x="725" y="740" width="120" height="60" as="geometry" />
        </mxCell>
        <mxCell id="lKPR0EWJqiZ5-bT2hnbr-41" value="" style="endArrow=classic;html=1;rounded=0;exitX=1;exitY=0.5;exitDx=0;exitDy=0;" edge="1" parent="1" source="lKPR0EWJqiZ5-bT2hnbr-31" target="lKPR0EWJqiZ5-bT2hnbr-42">
          <mxGeometry width="50" height="50" relative="1" as="geometry">
            <mxPoint x="880" y="890" as="sourcePoint" />
            <mxPoint x="930" y="840" as="targetPoint" />
          </mxGeometry>
        </mxCell>
        <mxCell id="lKPR0EWJqiZ5-bT2hnbr-42" value="random[index]&amp;nbsp;&lt;br&gt;not equal &#39;x&#39;" style="rhombus;whiteSpace=wrap;html=1;" vertex="1" parent="1">
          <mxGeometry x="920" y="890" width="110" height="110" as="geometry" />
        </mxCell>
        <mxCell id="lKPR0EWJqiZ5-bT2hnbr-43" value="" style="endArrow=classic;html=1;rounded=0;exitX=0;exitY=0.5;exitDx=0;exitDy=0;" edge="1" parent="1" source="lKPR0EWJqiZ5-bT2hnbr-13" target="lKPR0EWJqiZ5-bT2hnbr-44">
          <mxGeometry width="50" height="50" relative="1" as="geometry">
            <mxPoint x="370" y="790" as="sourcePoint" />
            <mxPoint x="420" y="740" as="targetPoint" />
          </mxGeometry>
        </mxCell>
        <mxCell id="lKPR0EWJqiZ5-bT2hnbr-44" value="" style="ellipse;whiteSpace=wrap;html=1;aspect=fixed;" vertex="1" parent="1">
          <mxGeometry x="110" y="630" width="20" height="20" as="geometry" />
        </mxCell>
        <mxCell id="lKPR0EWJqiZ5-bT2hnbr-48" value="True" style="text;html=1;strokeColor=none;fillColor=none;align=center;verticalAlign=middle;whiteSpace=wrap;rounded=0;" vertex="1" parent="1">
          <mxGeometry x="770" y="840" width="60" height="30" as="geometry" />
        </mxCell>
        <mxCell id="lKPR0EWJqiZ5-bT2hnbr-49" value="False" style="text;html=1;align=center;verticalAlign=middle;resizable=0;points=[];autosize=1;strokeColor=none;fillColor=none;" vertex="1" parent="1">
          <mxGeometry x="845" y="915" width="50" height="30" as="geometry" />
        </mxCell>
        <mxCell id="lKPR0EWJqiZ5-bT2hnbr-50" value="" style="endArrow=classic;html=1;rounded=0;exitX=1;exitY=0.5;exitDx=0;exitDy=0;" edge="1" parent="1" source="lKPR0EWJqiZ5-bT2hnbr-42" target="lKPR0EWJqiZ5-bT2hnbr-51">
          <mxGeometry width="50" height="50" relative="1" as="geometry">
            <mxPoint x="1030" y="990" as="sourcePoint" />
            <mxPoint x="1080" y="940" as="targetPoint" />
          </mxGeometry>
        </mxCell>
        <mxCell id="lKPR0EWJqiZ5-bT2hnbr-51" value="p1 &amp;lt;= p1 + random[index]&lt;br&gt;random[index] &amp;lt;= &#39;x&#39;" style="rounded=0;whiteSpace=wrap;html=1;" vertex="1" parent="1">
          <mxGeometry x="1100" y="915" width="160" height="60" as="geometry" />
        </mxCell>
        <mxCell id="lKPR0EWJqiZ5-bT2hnbr-52" value="" style="endArrow=classic;html=1;rounded=0;exitX=0.549;exitY=0.023;exitDx=0;exitDy=0;exitPerimeter=0;" edge="1" parent="1" source="lKPR0EWJqiZ5-bT2hnbr-51" target="lKPR0EWJqiZ5-bT2hnbr-54">
          <mxGeometry width="50" height="50" relative="1" as="geometry">
            <mxPoint x="1150" y="870" as="sourcePoint" />
            <mxPoint x="1190" y="820" as="targetPoint" />
          </mxGeometry>
        </mxCell>
        <mxCell id="lKPR0EWJqiZ5-bT2hnbr-53" value="True" style="text;html=1;align=center;verticalAlign=middle;resizable=0;points=[];autosize=1;strokeColor=none;fillColor=none;" vertex="1" parent="1">
          <mxGeometry x="1025" y="915" width="50" height="30" as="geometry" />
        </mxCell>
        <mxCell id="lKPR0EWJqiZ5-bT2hnbr-54" value="return p1, index" style="shape=parallelogram;perimeter=parallelogramPerimeter;whiteSpace=wrap;html=1;fixedSize=1;" vertex="1" parent="1">
          <mxGeometry x="1130" y="740" width="120" height="60" as="geometry" />
        </mxCell>
        <mxCell id="lKPR0EWJqiZ5-bT2hnbr-58" value="" style="endArrow=classic;html=1;rounded=0;exitX=0.5;exitY=0;exitDx=0;exitDy=0;" edge="1" parent="1" source="lKPR0EWJqiZ5-bT2hnbr-40" target="lKPR0EWJqiZ5-bT2hnbr-59">
          <mxGeometry width="50" height="50" relative="1" as="geometry">
            <mxPoint x="850" y="780" as="sourcePoint" />
            <mxPoint x="900" y="730" as="targetPoint" />
          </mxGeometry>
        </mxCell>
        <mxCell id="lKPR0EWJqiZ5-bT2hnbr-59" value="End" style="ellipse;whiteSpace=wrap;html=1;" vertex="1" parent="1">
          <mxGeometry x="725" y="600" width="120" height="80" as="geometry" />
        </mxCell>
        <mxCell id="lKPR0EWJqiZ5-bT2hnbr-60" value="" style="endArrow=classic;html=1;rounded=0;exitX=0.5;exitY=1;exitDx=0;exitDy=0;entryX=0.5;entryY=0;entryDx=0;entryDy=0;" edge="1" parent="1" source="lKPR0EWJqiZ5-bT2hnbr-42" target="lKPR0EWJqiZ5-bT2hnbr-61">
          <mxGeometry width="50" height="50" relative="1" as="geometry">
            <mxPoint x="850" y="780" as="sourcePoint" />
            <mxPoint x="970" y="250" as="targetPoint" />
          </mxGeometry>
        </mxCell>
        <mxCell id="lKPR0EWJqiZ5-bT2hnbr-61" value="" style="ellipse;whiteSpace=wrap;html=1;aspect=fixed;" vertex="1" parent="1">
          <mxGeometry x="965" y="1050" width="20" height="20" as="geometry" />
        </mxCell>
        <mxCell id="lKPR0EWJqiZ5-bT2hnbr-63" value="" style="endArrow=classic;html=1;rounded=0;exitX=0.5;exitY=0;exitDx=0;exitDy=0;" edge="1" parent="1" source="lKPR0EWJqiZ5-bT2hnbr-54" target="TNuhMPlIm-OygipPdZGe-1">
          <mxGeometry width="50" height="50" relative="1" as="geometry">
            <mxPoint x="850" y="680" as="sourcePoint" />
            <mxPoint x="1190" y="640" as="targetPoint" />
          </mxGeometry>
        </mxCell>
        <mxCell id="lKPR0EWJqiZ5-bT2hnbr-64" value="False" style="text;html=1;align=center;verticalAlign=middle;resizable=0;points=[];autosize=1;strokeColor=none;fillColor=none;" vertex="1" parent="1">
          <mxGeometry x="970" y="810" width="50" height="30" as="geometry" />
        </mxCell>
        <mxCell id="lKPR0EWJqiZ5-bT2hnbr-66" value="" style="endArrow=classic;html=1;rounded=0;exitX=1;exitY=0.5;exitDx=0;exitDy=0;" edge="1" parent="1" source="lKPR0EWJqiZ5-bT2hnbr-61" target="lKPR0EWJqiZ5-bT2hnbr-67">
          <mxGeometry width="50" height="50" relative="1" as="geometry">
            <mxPoint x="720" y="810" as="sourcePoint" />
            <mxPoint x="770" y="760" as="targetPoint" />
          </mxGeometry>
        </mxCell>
        <mxCell id="lKPR0EWJqiZ5-bT2hnbr-67" value="" style="ellipse;whiteSpace=wrap;html=1;aspect=fixed;" vertex="1" parent="1">
          <mxGeometry x="1360" y="1050" width="20" height="20" as="geometry" />
        </mxCell>
        <mxCell id="lKPR0EWJqiZ5-bT2hnbr-68" value="" style="endArrow=classic;html=1;rounded=0;exitX=0.5;exitY=0;exitDx=0;exitDy=0;" edge="1" parent="1" source="lKPR0EWJqiZ5-bT2hnbr-67" target="lKPR0EWJqiZ5-bT2hnbr-69">
          <mxGeometry width="50" height="50" relative="1" as="geometry">
            <mxPoint x="720" y="810" as="sourcePoint" />
            <mxPoint x="770" y="760" as="targetPoint" />
          </mxGeometry>
        </mxCell>
        <mxCell id="lKPR0EWJqiZ5-bT2hnbr-69" value="" style="ellipse;whiteSpace=wrap;html=1;aspect=fixed;" vertex="1" parent="1">
          <mxGeometry x="1350" y="230" width="20" height="20" as="geometry" />
        </mxCell>
        <mxCell id="lKPR0EWJqiZ5-bT2hnbr-70" value="" style="endArrow=classic;html=1;rounded=0;exitX=0;exitY=0.5;exitDx=0;exitDy=0;entryX=1;entryY=0.5;entryDx=0;entryDy=0;" edge="1" parent="1" source="lKPR0EWJqiZ5-bT2hnbr-69" target="lKPR0EWJqiZ5-bT2hnbr-5">
          <mxGeometry width="50" height="50" relative="1" as="geometry">
            <mxPoint x="720" y="410" as="sourcePoint" />
            <mxPoint x="770" y="360" as="targetPoint" />
          </mxGeometry>
        </mxCell>
        <mxCell id="lKPR0EWJqiZ5-bT2hnbr-71" value="&lt;font style=&quot;font-size: 48px;&quot;&gt;selectRow function&lt;/font&gt;" style="text;html=1;strokeColor=none;fillColor=none;align=center;verticalAlign=middle;whiteSpace=wrap;rounded=0;" vertex="1" parent="1">
          <mxGeometry x="410" y="30" width="410" height="180" as="geometry" />
        </mxCell>
        <mxCell id="TNuhMPlIm-OygipPdZGe-1" value="" style="ellipse;whiteSpace=wrap;html=1;aspect=fixed;" vertex="1" parent="1">
          <mxGeometry x="1180" y="630" width="20" height="20" as="geometry" />
        </mxCell>
        <mxCell id="TNuhMPlIm-OygipPdZGe-2" value="" style="endArrow=classic;html=1;rounded=0;exitX=0;exitY=0.5;exitDx=0;exitDy=0;entryX=1;entryY=0.5;entryDx=0;entryDy=0;" edge="1" parent="1" source="TNuhMPlIm-OygipPdZGe-1" target="lKPR0EWJqiZ5-bT2hnbr-59">
          <mxGeometry width="50" height="50" relative="1" as="geometry">
            <mxPoint x="720" y="680" as="sourcePoint" />
            <mxPoint x="770" y="630" as="targetPoint" />
          </mxGeometry>
        </mxCell>
        <mxCell id="mmZu9miKE5nUliATl3oO-1" value="" style="endArrow=classic;html=1;rounded=0;entryX=0.5;entryY=1;entryDx=0;entryDy=0;" edge="1" parent="1" target="mmZu9miKE5nUliATl3oO-4">
          <mxGeometry width="50" height="50" relative="1" as="geometry">
            <mxPoint x="120" y="630" as="sourcePoint" />
            <mxPoint x="94.808415585577" y="396.72577823276697" as="targetPoint" />
          </mxGeometry>
        </mxCell>
        <mxCell id="mmZu9miKE5nUliATl3oO-4" value="" style="ellipse;whiteSpace=wrap;html=1;aspect=fixed;" vertex="1" parent="1">
          <mxGeometry x="110" y="230" width="20" height="20" as="geometry" />
        </mxCell>
        <mxCell id="mmZu9miKE5nUliATl3oO-5" value="" style="endArrow=classic;html=1;rounded=0;exitX=1;exitY=0.5;exitDx=0;exitDy=0;entryX=0;entryY=0.5;entryDx=0;entryDy=0;" edge="1" parent="1" source="mmZu9miKE5nUliATl3oO-4" target="lKPR0EWJqiZ5-bT2hnbr-5">
          <mxGeometry width="50" height="50" relative="1" as="geometry">
            <mxPoint x="230" y="310" as="sourcePoint" />
            <mxPoint x="280" y="260" as="targetPoint" />
          </mxGeometry>
        </mxCell>
      </root>
    </mxGraphModel>
  </diagram>
  <diagram id="5_h6L8Aplem5e1P-xPFY" name="selectColumn">
    <mxGraphModel dx="1290" dy="619" grid="1" gridSize="10" guides="1" tooltips="1" connect="1" arrows="1" fold="1" page="1" pageScale="1" pageWidth="850" pageHeight="1100" math="0" shadow="0">
      <root>
        <mxCell id="0" />
        <mxCell id="1" parent="0" />
        <mxCell id="Leh8fqeRburZ6YjtwLrV-1" value="&lt;font style=&quot;font-size: 36px;&quot;&gt;Start&lt;/font&gt;" style="ellipse;whiteSpace=wrap;html=1;" vertex="1" parent="1">
          <mxGeometry x="170" y="70" width="120" height="80" as="geometry" />
        </mxCell>
        <mxCell id="Leh8fqeRburZ6YjtwLrV-2" value="" style="endArrow=classic;html=1;rounded=0;exitX=0.5;exitY=1;exitDx=0;exitDy=0;" edge="1" parent="1" source="Leh8fqeRburZ6YjtwLrV-1" target="Leh8fqeRburZ6YjtwLrV-3">
          <mxGeometry width="50" height="50" relative="1" as="geometry">
            <mxPoint x="230" y="210" as="sourcePoint" />
            <mxPoint x="233.125" y="150.625" as="targetPoint" />
          </mxGeometry>
        </mxCell>
        <mxCell id="Leh8fqeRburZ6YjtwLrV-3" value="&lt;font style=&quot;font-size: 18px;&quot;&gt;while True&lt;/font&gt;" style="rhombus;whiteSpace=wrap;html=1;" vertex="1" parent="1">
          <mxGeometry x="180" y="190" width="100" height="100" as="geometry" />
        </mxCell>
        <mxCell id="Leh8fqeRburZ6YjtwLrV-4" value="" style="endArrow=classic;html=1;rounded=0;exitX=0.5;exitY=1;exitDx=0;exitDy=0;" edge="1" parent="1" source="Leh8fqeRburZ6YjtwLrV-3" target="Leh8fqeRburZ6YjtwLrV-5">
          <mxGeometry width="50" height="50" relative="1" as="geometry">
            <mxPoint x="230" y="510" as="sourcePoint" />
            <mxPoint x="280" y="460" as="targetPoint" />
          </mxGeometry>
        </mxCell>
        <mxCell id="Leh8fqeRburZ6YjtwLrV-5" value="&lt;font style=&quot;font-size: 14px;&quot;&gt;Input choose&lt;/font&gt;" style="shape=parallelogram;perimeter=parallelogramPerimeter;whiteSpace=wrap;html=1;fixedSize=1;" vertex="1" parent="1">
          <mxGeometry x="170" y="330" width="120" height="60" as="geometry" />
        </mxCell>
        <mxCell id="Leh8fqeRburZ6YjtwLrV-6" value="" style="endArrow=classic;html=1;rounded=0;exitX=0.442;exitY=1.04;exitDx=0;exitDy=0;exitPerimeter=0;" edge="1" parent="1" source="Leh8fqeRburZ6YjtwLrV-5" target="Leh8fqeRburZ6YjtwLrV-7">
          <mxGeometry width="50" height="50" relative="1" as="geometry">
            <mxPoint x="230" y="490" as="sourcePoint" />
            <mxPoint x="280" y="440" as="targetPoint" />
          </mxGeometry>
        </mxCell>
        <mxCell id="Leh8fqeRburZ6YjtwLrV-7" value="&lt;font style=&quot;font-size: 14px;&quot;&gt;choose&amp;lt;=0&lt;br&gt;or&lt;br&gt;choose&amp;gt;size&lt;/font&gt;" style="rhombus;whiteSpace=wrap;html=1;" vertex="1" parent="1">
          <mxGeometry x="165" y="450" width="115" height="110" as="geometry" />
        </mxCell>
        <mxCell id="Leh8fqeRburZ6YjtwLrV-8" value="True" style="text;html=1;strokeColor=none;fillColor=none;align=center;verticalAlign=middle;whiteSpace=wrap;rounded=0;" vertex="1" parent="1">
          <mxGeometry x="220" y="290" width="60" height="30" as="geometry" />
        </mxCell>
        <mxCell id="Leh8fqeRburZ6YjtwLrV-9" value="" style="endArrow=classic;html=1;rounded=0;exitX=0.5;exitY=1;exitDx=0;exitDy=0;" edge="1" parent="1" source="Leh8fqeRburZ6YjtwLrV-7" target="Leh8fqeRburZ6YjtwLrV-10">
          <mxGeometry width="50" height="50" relative="1" as="geometry">
            <mxPoint x="230" y="680" as="sourcePoint" />
            <mxPoint x="280" y="630" as="targetPoint" />
          </mxGeometry>
        </mxCell>
        <mxCell id="Leh8fqeRburZ6YjtwLrV-10" value="&lt;font style=&quot;font-size: 14px;&quot;&gt;Output&amp;nbsp; choose valid number&lt;/font&gt;" style="shape=parallelogram;perimeter=parallelogramPerimeter;whiteSpace=wrap;html=1;fixedSize=1;" vertex="1" parent="1">
          <mxGeometry x="162.5" y="610" width="120" height="60" as="geometry" />
        </mxCell>
        <mxCell id="Leh8fqeRburZ6YjtwLrV-11" value="True" style="text;html=1;strokeColor=none;fillColor=none;align=center;verticalAlign=middle;whiteSpace=wrap;rounded=0;" vertex="1" parent="1">
          <mxGeometry x="210" y="570" width="60" height="30" as="geometry" />
        </mxCell>
        <mxCell id="Leh8fqeRburZ6YjtwLrV-12" value="" style="endArrow=classic;html=1;rounded=0;exitX=1;exitY=0.5;exitDx=0;exitDy=0;" edge="1" parent="1" source="Leh8fqeRburZ6YjtwLrV-7">
          <mxGeometry width="50" height="50" relative="1" as="geometry">
            <mxPoint x="230" y="570" as="sourcePoint" />
            <mxPoint x="350" y="505" as="targetPoint" />
          </mxGeometry>
        </mxCell>
        <mxCell id="Leh8fqeRburZ6YjtwLrV-13" value="while index &amp;gt;= size" style="rhombus;whiteSpace=wrap;html=1;" vertex="1" parent="1">
          <mxGeometry x="350" y="450" width="110" height="110" as="geometry" />
        </mxCell>
        <mxCell id="Leh8fqeRburZ6YjtwLrV-14" value="False" style="text;html=1;align=center;verticalAlign=middle;resizable=0;points=[];autosize=1;strokeColor=none;fillColor=none;" vertex="1" parent="1">
          <mxGeometry x="282.5" y="480" width="50" height="30" as="geometry" />
        </mxCell>
        <mxCell id="Leh8fqeRburZ6YjtwLrV-15" value="" style="endArrow=classic;html=1;rounded=0;exitX=0.5;exitY=1;exitDx=0;exitDy=0;" edge="1" parent="1" source="Leh8fqeRburZ6YjtwLrV-13">
          <mxGeometry width="50" height="50" relative="1" as="geometry">
            <mxPoint x="390" y="530" as="sourcePoint" />
            <mxPoint x="405" y="620" as="targetPoint" />
          </mxGeometry>
        </mxCell>
        <mxCell id="Leh8fqeRburZ6YjtwLrV-17" value="True" style="text;html=1;align=center;verticalAlign=middle;resizable=0;points=[];autosize=1;strokeColor=none;fillColor=none;" vertex="1" parent="1">
          <mxGeometry x="400" y="570" width="50" height="30" as="geometry" />
        </mxCell>
        <mxCell id="Leh8fqeRburZ6YjtwLrV-34" value="" style="endArrow=classic;html=1;rounded=0;exitX=0.5;exitY=1;exitDx=0;exitDy=0;" edge="1" parent="1" source="q-AU1rnG-RQHkwLTB7cy-5" target="Leh8fqeRburZ6YjtwLrV-35">
          <mxGeometry width="50" height="50" relative="1" as="geometry">
            <mxPoint x="850" y="900" as="sourcePoint" />
            <mxPoint x="900" y="850" as="targetPoint" />
          </mxGeometry>
        </mxCell>
        <mxCell id="Leh8fqeRburZ6YjtwLrV-35" value="Output&amp;nbsp;&lt;br&gt;already choosen" style="shape=parallelogram;perimeter=parallelogramPerimeter;whiteSpace=wrap;html=1;fixedSize=1;" vertex="1" parent="1">
          <mxGeometry x="535" y="420" width="120" height="60" as="geometry" />
        </mxCell>
        <mxCell id="Leh8fqeRburZ6YjtwLrV-51" value="End" style="ellipse;whiteSpace=wrap;html=1;" vertex="1" parent="1">
          <mxGeometry x="730" y="590" width="120" height="80" as="geometry" />
        </mxCell>
        <mxCell id="Leh8fqeRburZ6YjtwLrV-61" value="&lt;font style=&quot;font-size: 48px;&quot;&gt;selectColumn function&lt;/font&gt;" style="text;html=1;strokeColor=none;fillColor=none;align=center;verticalAlign=middle;whiteSpace=wrap;rounded=0;" vertex="1" parent="1">
          <mxGeometry x="410" y="30" width="410" height="180" as="geometry" />
        </mxCell>
        <mxCell id="q-AU1rnG-RQHkwLTB7cy-1" value="index &amp;lt;= index - size" style="rounded=0;whiteSpace=wrap;html=1;" vertex="1" parent="1">
          <mxGeometry x="345" y="620" width="120" height="60" as="geometry" />
        </mxCell>
        <mxCell id="q-AU1rnG-RQHkwLTB7cy-2" value="" style="endArrow=classic;html=1;rounded=0;exitX=1;exitY=0.5;exitDx=0;exitDy=0;" edge="1" parent="1" source="q-AU1rnG-RQHkwLTB7cy-11">
          <mxGeometry width="50" height="50" relative="1" as="geometry">
            <mxPoint x="370" y="640" as="sourcePoint" />
            <mxPoint x="580" y="505" as="targetPoint" />
          </mxGeometry>
        </mxCell>
        <mxCell id="q-AU1rnG-RQHkwLTB7cy-3" value="index &amp;lt;= index + &lt;br&gt;(size* (choose-1))" style="rounded=0;whiteSpace=wrap;html=1;" vertex="1" parent="1">
          <mxGeometry x="345" y="300" width="120" height="60" as="geometry" />
        </mxCell>
        <mxCell id="q-AU1rnG-RQHkwLTB7cy-4" value="" style="endArrow=classic;html=1;rounded=0;exitX=1;exitY=0.5;exitDx=0;exitDy=0;" edge="1" parent="1" source="q-AU1rnG-RQHkwLTB7cy-3">
          <mxGeometry width="50" height="50" relative="1" as="geometry">
            <mxPoint x="720" y="480" as="sourcePoint" />
            <mxPoint x="540" y="330" as="targetPoint" />
          </mxGeometry>
        </mxCell>
        <mxCell id="q-AU1rnG-RQHkwLTB7cy-5" value="if random[index]&amp;nbsp;&lt;br&gt;==&#39;x&#39;" style="rhombus;whiteSpace=wrap;html=1;" vertex="1" parent="1">
          <mxGeometry x="540" y="275" width="110" height="110" as="geometry" />
        </mxCell>
        <mxCell id="q-AU1rnG-RQHkwLTB7cy-6" value="" style="endArrow=classic;html=1;rounded=0;exitX=0.5;exitY=0;exitDx=0;exitDy=0;" edge="1" parent="1" source="Leh8fqeRburZ6YjtwLrV-13">
          <mxGeometry width="50" height="50" relative="1" as="geometry">
            <mxPoint x="560" y="630" as="sourcePoint" />
            <mxPoint x="405" y="360" as="targetPoint" />
          </mxGeometry>
        </mxCell>
        <mxCell id="q-AU1rnG-RQHkwLTB7cy-13" value="&lt;font style=&quot;font-size: 14px;&quot;&gt;False&lt;/font&gt;" style="edgeLabel;html=1;align=center;verticalAlign=middle;resizable=0;points=[];" vertex="1" connectable="0" parent="q-AU1rnG-RQHkwLTB7cy-6">
          <mxGeometry x="-0.3467" y="-2" relative="1" as="geometry">
            <mxPoint as="offset" />
          </mxGeometry>
        </mxCell>
        <mxCell id="q-AU1rnG-RQHkwLTB7cy-7" value="" style="endArrow=classic;html=1;rounded=0;exitX=1;exitY=0.5;exitDx=0;exitDy=0;" edge="1" parent="1" source="q-AU1rnG-RQHkwLTB7cy-1" target="q-AU1rnG-RQHkwLTB7cy-9">
          <mxGeometry width="50" height="50" relative="1" as="geometry">
            <mxPoint x="560" y="630" as="sourcePoint" />
            <mxPoint x="610" y="580" as="targetPoint" />
          </mxGeometry>
        </mxCell>
        <mxCell id="q-AU1rnG-RQHkwLTB7cy-9" value="" style="ellipse;whiteSpace=wrap;html=1;aspect=fixed;" vertex="1" parent="1">
          <mxGeometry x="560" y="640" width="20" height="20" as="geometry" />
        </mxCell>
        <mxCell id="q-AU1rnG-RQHkwLTB7cy-10" value="" style="endArrow=classic;html=1;rounded=0;exitX=0.5;exitY=0;exitDx=0;exitDy=0;" edge="1" parent="1" source="q-AU1rnG-RQHkwLTB7cy-9" target="q-AU1rnG-RQHkwLTB7cy-11">
          <mxGeometry width="50" height="50" relative="1" as="geometry">
            <mxPoint x="560" y="630" as="sourcePoint" />
            <mxPoint x="610" y="580" as="targetPoint" />
          </mxGeometry>
        </mxCell>
        <mxCell id="q-AU1rnG-RQHkwLTB7cy-12" value="" style="endArrow=classic;html=1;rounded=0;exitX=0;exitY=0.5;exitDx=0;exitDy=0;entryX=1;entryY=0.5;entryDx=0;entryDy=0;" edge="1" parent="1" source="q-AU1rnG-RQHkwLTB7cy-11" target="Leh8fqeRburZ6YjtwLrV-13">
          <mxGeometry width="50" height="50" relative="1" as="geometry">
            <mxPoint x="460" y="505" as="sourcePoint" />
            <mxPoint x="580" y="505" as="targetPoint" />
          </mxGeometry>
        </mxCell>
        <mxCell id="q-AU1rnG-RQHkwLTB7cy-11" value="" style="ellipse;whiteSpace=wrap;html=1;aspect=fixed;" vertex="1" parent="1">
          <mxGeometry x="560" y="495" width="20" height="20" as="geometry" />
        </mxCell>
        <mxCell id="q-AU1rnG-RQHkwLTB7cy-14" value="True" style="text;html=1;align=center;verticalAlign=middle;resizable=0;points=[];autosize=1;strokeColor=none;fillColor=none;" vertex="1" parent="1">
          <mxGeometry x="585" y="385" width="50" height="30" as="geometry" />
        </mxCell>
        <mxCell id="q-AU1rnG-RQHkwLTB7cy-15" value="" style="endArrow=classic;html=1;rounded=0;exitX=1;exitY=0.5;exitDx=0;exitDy=0;" edge="1" parent="1" source="q-AU1rnG-RQHkwLTB7cy-5" target="q-AU1rnG-RQHkwLTB7cy-16">
          <mxGeometry width="50" height="50" relative="1" as="geometry">
            <mxPoint x="700" y="420" as="sourcePoint" />
            <mxPoint x="750" y="370" as="targetPoint" />
          </mxGeometry>
        </mxCell>
        <mxCell id="q-AU1rnG-RQHkwLTB7cy-16" value="if random[index]&lt;br&gt;not equal to &#39;x&#39;" style="rhombus;whiteSpace=wrap;html=1;" vertex="1" parent="1">
          <mxGeometry x="730" y="275" width="110" height="110" as="geometry" />
        </mxCell>
        <mxCell id="q-AU1rnG-RQHkwLTB7cy-17" value="" style="endArrow=classic;html=1;rounded=0;exitX=1;exitY=0.5;exitDx=0;exitDy=0;" edge="1" parent="1" source="q-AU1rnG-RQHkwLTB7cy-16" target="q-AU1rnG-RQHkwLTB7cy-18">
          <mxGeometry width="50" height="50" relative="1" as="geometry">
            <mxPoint x="700" y="420" as="sourcePoint" />
            <mxPoint x="750" y="370" as="targetPoint" />
          </mxGeometry>
        </mxCell>
        <mxCell id="q-AU1rnG-RQHkwLTB7cy-18" value="p2 &amp;lt;= p2 + random[index]&lt;br&gt;random[index] &amp;lt;= &#39;x&#39;" style="rounded=0;whiteSpace=wrap;html=1;" vertex="1" parent="1">
          <mxGeometry x="915" y="300" width="165" height="60" as="geometry" />
        </mxCell>
        <mxCell id="q-AU1rnG-RQHkwLTB7cy-19" value="" style="endArrow=classic;html=1;rounded=0;exitX=0.5;exitY=1;exitDx=0;exitDy=0;" edge="1" parent="1" source="q-AU1rnG-RQHkwLTB7cy-18" target="q-AU1rnG-RQHkwLTB7cy-24">
          <mxGeometry width="50" height="50" relative="1" as="geometry">
            <mxPoint x="1120" y="400" as="sourcePoint" />
            <mxPoint x="1180" y="330" as="targetPoint" />
          </mxGeometry>
        </mxCell>
        <mxCell id="q-AU1rnG-RQHkwLTB7cy-20" value="" style="endArrow=classic;html=1;rounded=0;exitX=0.5;exitY=0;exitDx=0;exitDy=0;" edge="1" parent="1" source="q-AU1rnG-RQHkwLTB7cy-16" target="q-AU1rnG-RQHkwLTB7cy-21">
          <mxGeometry width="50" height="50" relative="1" as="geometry">
            <mxPoint x="770" y="400" as="sourcePoint" />
            <mxPoint x="820" y="350" as="targetPoint" />
          </mxGeometry>
        </mxCell>
        <mxCell id="q-AU1rnG-RQHkwLTB7cy-21" value="" style="ellipse;whiteSpace=wrap;html=1;aspect=fixed;" vertex="1" parent="1">
          <mxGeometry x="775" y="230" width="20" height="20" as="geometry" />
        </mxCell>
        <mxCell id="q-AU1rnG-RQHkwLTB7cy-23" value="" style="endArrow=classic;html=1;rounded=0;exitX=0;exitY=0.5;exitDx=0;exitDy=0;entryX=1;entryY=0.5;entryDx=0;entryDy=0;" edge="1" parent="1" source="q-AU1rnG-RQHkwLTB7cy-21" target="Leh8fqeRburZ6YjtwLrV-3">
          <mxGeometry width="50" height="50" relative="1" as="geometry">
            <mxPoint x="770" y="400" as="sourcePoint" />
            <mxPoint x="820" y="350" as="targetPoint" />
          </mxGeometry>
        </mxCell>
        <mxCell id="q-AU1rnG-RQHkwLTB7cy-24" value="return p2, index" style="shape=parallelogram;perimeter=parallelogramPerimeter;whiteSpace=wrap;html=1;fixedSize=1;" vertex="1" parent="1">
          <mxGeometry x="937.5" y="420" width="120" height="60" as="geometry" />
        </mxCell>
        <mxCell id="q-AU1rnG-RQHkwLTB7cy-25" value="True" style="text;html=1;align=center;verticalAlign=middle;resizable=0;points=[];autosize=1;strokeColor=none;fillColor=none;" vertex="1" parent="1">
          <mxGeometry x="835" y="305" width="50" height="30" as="geometry" />
        </mxCell>
        <mxCell id="q-AU1rnG-RQHkwLTB7cy-26" value="False" style="text;html=1;align=center;verticalAlign=middle;resizable=0;points=[];autosize=1;strokeColor=none;fillColor=none;" vertex="1" parent="1">
          <mxGeometry x="780" y="260" width="50" height="30" as="geometry" />
        </mxCell>
        <mxCell id="q-AU1rnG-RQHkwLTB7cy-27" value="False" style="text;html=1;align=center;verticalAlign=middle;resizable=0;points=[];autosize=1;strokeColor=none;fillColor=none;" vertex="1" parent="1">
          <mxGeometry x="645" y="305" width="50" height="30" as="geometry" />
        </mxCell>
        <mxCell id="q-AU1rnG-RQHkwLTB7cy-28" value="" style="endArrow=classic;html=1;rounded=0;exitX=1;exitY=0.5;exitDx=0;exitDy=0;entryX=0;entryY=0.5;entryDx=0;entryDy=0;" edge="1" parent="1" source="Leh8fqeRburZ6YjtwLrV-35" target="q-AU1rnG-RQHkwLTB7cy-29">
          <mxGeometry width="50" height="50" relative="1" as="geometry">
            <mxPoint x="760" y="400" as="sourcePoint" />
            <mxPoint x="810" y="350" as="targetPoint" />
          </mxGeometry>
        </mxCell>
        <mxCell id="q-AU1rnG-RQHkwLTB7cy-29" value="" style="ellipse;whiteSpace=wrap;html=1;aspect=fixed;" vertex="1" parent="1">
          <mxGeometry x="780" y="440" width="20" height="20" as="geometry" />
        </mxCell>
        <mxCell id="q-AU1rnG-RQHkwLTB7cy-30" value="" style="endArrow=classic;html=1;rounded=0;entryX=1;entryY=0.5;entryDx=0;entryDy=0;" edge="1" parent="1" source="q-AU1rnG-RQHkwLTB7cy-24" target="q-AU1rnG-RQHkwLTB7cy-29">
          <mxGeometry width="50" height="50" relative="1" as="geometry">
            <mxPoint x="750" y="400" as="sourcePoint" />
            <mxPoint x="800" y="350" as="targetPoint" />
          </mxGeometry>
        </mxCell>
        <mxCell id="q-AU1rnG-RQHkwLTB7cy-31" value="" style="endArrow=classic;html=1;rounded=0;exitX=0.5;exitY=1;exitDx=0;exitDy=0;" edge="1" parent="1" source="q-AU1rnG-RQHkwLTB7cy-29">
          <mxGeometry width="50" height="50" relative="1" as="geometry">
            <mxPoint x="750" y="400" as="sourcePoint" />
            <mxPoint x="790" y="590" as="targetPoint" />
          </mxGeometry>
        </mxCell>
        <mxCell id="q-AU1rnG-RQHkwLTB7cy-32" value="" style="endArrow=classic;html=1;rounded=0;exitX=0;exitY=0.5;exitDx=0;exitDy=0;" edge="1" parent="1" source="Leh8fqeRburZ6YjtwLrV-10" target="q-AU1rnG-RQHkwLTB7cy-33">
          <mxGeometry width="50" height="50" relative="1" as="geometry">
            <mxPoint x="540" y="610" as="sourcePoint" />
            <mxPoint x="90" y="640" as="targetPoint" />
          </mxGeometry>
        </mxCell>
        <mxCell id="q-AU1rnG-RQHkwLTB7cy-33" value="" style="ellipse;whiteSpace=wrap;html=1;aspect=fixed;" vertex="1" parent="1">
          <mxGeometry x="70" y="630" width="20" height="20" as="geometry" />
        </mxCell>
        <mxCell id="q-AU1rnG-RQHkwLTB7cy-34" value="" style="endArrow=classic;html=1;rounded=0;exitX=0.5;exitY=0;exitDx=0;exitDy=0;" edge="1" parent="1" source="q-AU1rnG-RQHkwLTB7cy-33" target="q-AU1rnG-RQHkwLTB7cy-35">
          <mxGeometry width="50" height="50" relative="1" as="geometry">
            <mxPoint x="540" y="610" as="sourcePoint" />
            <mxPoint x="590" y="560" as="targetPoint" />
          </mxGeometry>
        </mxCell>
        <mxCell id="q-AU1rnG-RQHkwLTB7cy-35" value="" style="ellipse;whiteSpace=wrap;html=1;aspect=fixed;" vertex="1" parent="1">
          <mxGeometry x="70" y="230" width="20" height="20" as="geometry" />
        </mxCell>
        <mxCell id="q-AU1rnG-RQHkwLTB7cy-36" value="" style="endArrow=classic;html=1;rounded=0;exitX=1;exitY=0.5;exitDx=0;exitDy=0;" edge="1" parent="1" source="q-AU1rnG-RQHkwLTB7cy-35" target="Leh8fqeRburZ6YjtwLrV-3">
          <mxGeometry width="50" height="50" relative="1" as="geometry">
            <mxPoint x="540" y="610" as="sourcePoint" />
            <mxPoint x="590" y="560" as="targetPoint" />
          </mxGeometry>
        </mxCell>
      </root>
    </mxGraphModel>
  </diagram>
  <diagram id="Ku2yv__nFYEPm3mkgEiW" name="checkRow">
    <mxGraphModel dx="2140" dy="619" grid="1" gridSize="10" guides="1" tooltips="1" connect="1" arrows="1" fold="1" page="1" pageScale="1" pageWidth="850" pageHeight="1100" math="0" shadow="0">
      <root>
        <mxCell id="0" />
        <mxCell id="1" parent="0" />
        <mxCell id="TNVUAh6CWTh6sUahl_PE-63" value="Start" style="ellipse;whiteSpace=wrap;html=1;" vertex="1" parent="1">
          <mxGeometry x="120" y="30" width="120" height="80" as="geometry" />
        </mxCell>
        <mxCell id="TNVUAh6CWTh6sUahl_PE-64" value="" style="endArrow=classic;html=1;rounded=0;exitX=0.5;exitY=1;exitDx=0;exitDy=0;" edge="1" parent="1" source="TNVUAh6CWTh6sUahl_PE-63" target="TNVUAh6CWTh6sUahl_PE-65">
          <mxGeometry width="50" height="50" relative="1" as="geometry">
            <mxPoint x="400" y="250" as="sourcePoint" />
            <mxPoint x="450" y="200" as="targetPoint" />
          </mxGeometry>
        </mxCell>
        <mxCell id="TNVUAh6CWTh6sUahl_PE-65" value="for column from&amp;nbsp;&lt;br&gt;0 to size*size-1" style="rhombus;whiteSpace=wrap;html=1;" vertex="1" parent="1">
          <mxGeometry x="125" y="180" width="110" height="110" as="geometry" />
        </mxCell>
        <mxCell id="TNVUAh6CWTh6sUahl_PE-66" value="" style="endArrow=classic;html=1;rounded=0;exitX=0.5;exitY=1;exitDx=0;exitDy=0;" edge="1" parent="1" source="TNVUAh6CWTh6sUahl_PE-65" target="TNVUAh6CWTh6sUahl_PE-67">
          <mxGeometry width="50" height="50" relative="1" as="geometry">
            <mxPoint x="400" y="340" as="sourcePoint" />
            <mxPoint x="450" y="290" as="targetPoint" />
          </mxGeometry>
        </mxCell>
        <mxCell id="TNVUAh6CWTh6sUahl_PE-67" value="countX &amp;lt;= 0" style="rounded=0;whiteSpace=wrap;html=1;" vertex="1" parent="1">
          <mxGeometry x="120" y="340" width="120" height="60" as="geometry" />
        </mxCell>
        <mxCell id="TNVUAh6CWTh6sUahl_PE-69" value="" style="endArrow=classic;html=1;rounded=0;exitX=0.5;exitY=1;exitDx=0;exitDy=0;" edge="1" parent="1" source="TNVUAh6CWTh6sUahl_PE-67" target="TNVUAh6CWTh6sUahl_PE-70">
          <mxGeometry width="50" height="50" relative="1" as="geometry">
            <mxPoint x="400" y="340" as="sourcePoint" />
            <mxPoint x="450" y="290" as="targetPoint" />
          </mxGeometry>
        </mxCell>
        <mxCell id="TNVUAh6CWTh6sUahl_PE-70" value="for row from column to column + size" style="rhombus;whiteSpace=wrap;html=1;" vertex="1" parent="1">
          <mxGeometry x="125" y="450" width="110" height="110" as="geometry" />
        </mxCell>
        <mxCell id="TNVUAh6CWTh6sUahl_PE-71" value="True" style="text;html=1;align=center;verticalAlign=middle;resizable=0;points=[];autosize=1;strokeColor=none;fillColor=none;" vertex="1" parent="1">
          <mxGeometry x="165" y="295" width="50" height="30" as="geometry" />
        </mxCell>
        <mxCell id="TNVUAh6CWTh6sUahl_PE-72" value="" style="endArrow=classic;html=1;rounded=0;exitX=0.5;exitY=1;exitDx=0;exitDy=0;" edge="1" parent="1" source="TNVUAh6CWTh6sUahl_PE-70" target="TNVUAh6CWTh6sUahl_PE-73">
          <mxGeometry width="50" height="50" relative="1" as="geometry">
            <mxPoint x="400" y="430" as="sourcePoint" />
            <mxPoint x="450" y="380" as="targetPoint" />
          </mxGeometry>
        </mxCell>
        <mxCell id="TNVUAh6CWTh6sUahl_PE-77" value="" style="edgeStyle=orthogonalEdgeStyle;rounded=0;orthogonalLoop=1;jettySize=auto;html=1;" edge="1" parent="1" source="TNVUAh6CWTh6sUahl_PE-73" target="TNVUAh6CWTh6sUahl_PE-75">
          <mxGeometry relative="1" as="geometry" />
        </mxCell>
        <mxCell id="TNVUAh6CWTh6sUahl_PE-73" value="if random[row]&lt;br&gt;not equal to &#39;x&#39;" style="rhombus;whiteSpace=wrap;html=1;" vertex="1" parent="1">
          <mxGeometry x="125" y="610" width="110" height="110" as="geometry" />
        </mxCell>
        <mxCell id="TNVUAh6CWTh6sUahl_PE-74" value="" style="endArrow=classic;html=1;rounded=0;exitX=0.5;exitY=1;exitDx=0;exitDy=0;" edge="1" parent="1" source="TNVUAh6CWTh6sUahl_PE-73" target="TNVUAh6CWTh6sUahl_PE-75">
          <mxGeometry width="50" height="50" relative="1" as="geometry">
            <mxPoint x="400" y="580" as="sourcePoint" />
            <mxPoint x="450" y="530" as="targetPoint" />
          </mxGeometry>
        </mxCell>
        <mxCell id="TNVUAh6CWTh6sUahl_PE-75" value="break?" style="rhombus;whiteSpace=wrap;html=1;" vertex="1" parent="1">
          <mxGeometry x="125" y="770" width="110" height="110" as="geometry" />
        </mxCell>
        <mxCell id="TNVUAh6CWTh6sUahl_PE-76" value="True" style="text;html=1;align=center;verticalAlign=middle;resizable=0;points=[];autosize=1;strokeColor=none;fillColor=none;" vertex="1" parent="1">
          <mxGeometry x="165" y="565" width="50" height="30" as="geometry" />
        </mxCell>
        <mxCell id="TNVUAh6CWTh6sUahl_PE-78" value="True" style="text;html=1;align=center;verticalAlign=middle;resizable=0;points=[];autosize=1;strokeColor=none;fillColor=none;" vertex="1" parent="1">
          <mxGeometry x="165" y="725" width="50" height="30" as="geometry" />
        </mxCell>
        <mxCell id="TNVUAh6CWTh6sUahl_PE-79" value="" style="endArrow=classic;html=1;rounded=0;exitX=1;exitY=0.5;exitDx=0;exitDy=0;" edge="1" parent="1" source="TNVUAh6CWTh6sUahl_PE-73" target="TNVUAh6CWTh6sUahl_PE-80">
          <mxGeometry width="50" height="50" relative="1" as="geometry">
            <mxPoint x="400" y="590" as="sourcePoint" />
            <mxPoint x="450" y="540" as="targetPoint" />
          </mxGeometry>
        </mxCell>
        <mxCell id="TNVUAh6CWTh6sUahl_PE-80" value="if random[row]&lt;br&gt;equal == &#39;x&#39;" style="rhombus;whiteSpace=wrap;html=1;" vertex="1" parent="1">
          <mxGeometry x="340" y="610" width="110" height="110" as="geometry" />
        </mxCell>
        <mxCell id="TNVUAh6CWTh6sUahl_PE-81" value="False" style="text;html=1;align=center;verticalAlign=middle;resizable=0;points=[];autosize=1;strokeColor=none;fillColor=none;" vertex="1" parent="1">
          <mxGeometry x="250" y="640" width="50" height="30" as="geometry" />
        </mxCell>
        <mxCell id="TNVUAh6CWTh6sUahl_PE-82" value="" style="endArrow=classic;html=1;rounded=0;exitX=1;exitY=0.5;exitDx=0;exitDy=0;" edge="1" parent="1" source="TNVUAh6CWTh6sUahl_PE-80" target="TNVUAh6CWTh6sUahl_PE-83">
          <mxGeometry width="50" height="50" relative="1" as="geometry">
            <mxPoint x="400" y="480" as="sourcePoint" />
            <mxPoint x="450" y="430" as="targetPoint" />
          </mxGeometry>
        </mxCell>
        <mxCell id="TNVUAh6CWTh6sUahl_PE-83" value="countX &amp;lt;= countX + 1" style="rounded=0;whiteSpace=wrap;html=1;" vertex="1" parent="1">
          <mxGeometry x="510" y="635" width="120" height="60" as="geometry" />
        </mxCell>
        <mxCell id="TNVUAh6CWTh6sUahl_PE-84" value="" style="endArrow=classic;html=1;rounded=0;exitX=0.5;exitY=0;exitDx=0;exitDy=0;" edge="1" parent="1" source="TNVUAh6CWTh6sUahl_PE-83" target="TNVUAh6CWTh6sUahl_PE-85">
          <mxGeometry width="50" height="50" relative="1" as="geometry">
            <mxPoint x="400" y="580" as="sourcePoint" />
            <mxPoint x="450" y="530" as="targetPoint" />
          </mxGeometry>
        </mxCell>
        <mxCell id="TNVUAh6CWTh6sUahl_PE-85" value="if countX equal to&lt;br&gt;size" style="rhombus;whiteSpace=wrap;html=1;" vertex="1" parent="1">
          <mxGeometry x="515" y="450" width="110" height="110" as="geometry" />
        </mxCell>
        <mxCell id="TNVUAh6CWTh6sUahl_PE-86" value="" style="endArrow=classic;html=1;rounded=0;exitX=0.5;exitY=0;exitDx=0;exitDy=0;" edge="1" parent="1" source="TNVUAh6CWTh6sUahl_PE-85" target="TNVUAh6CWTh6sUahl_PE-87">
          <mxGeometry width="50" height="50" relative="1" as="geometry">
            <mxPoint x="400" y="380" as="sourcePoint" />
            <mxPoint x="450" y="330" as="targetPoint" />
          </mxGeometry>
        </mxCell>
        <mxCell id="TNVUAh6CWTh6sUahl_PE-87" value="return False" style="shape=parallelogram;perimeter=parallelogramPerimeter;whiteSpace=wrap;html=1;fixedSize=1;" vertex="1" parent="1">
          <mxGeometry x="510" y="325" width="120" height="60" as="geometry" />
        </mxCell>
        <mxCell id="TNVUAh6CWTh6sUahl_PE-88" value="" style="endArrow=classic;html=1;rounded=0;exitX=1;exitY=0.5;exitDx=0;exitDy=0;" edge="1" parent="1" source="TNVUAh6CWTh6sUahl_PE-65" target="TNVUAh6CWTh6sUahl_PE-89">
          <mxGeometry width="50" height="50" relative="1" as="geometry">
            <mxPoint x="400" y="380" as="sourcePoint" />
            <mxPoint x="450" y="330" as="targetPoint" />
          </mxGeometry>
        </mxCell>
        <mxCell id="TNVUAh6CWTh6sUahl_PE-89" value="return True" style="shape=parallelogram;perimeter=parallelogramPerimeter;whiteSpace=wrap;html=1;fixedSize=1;" vertex="1" parent="1">
          <mxGeometry x="270" y="205" width="120" height="60" as="geometry" />
        </mxCell>
        <mxCell id="TNVUAh6CWTh6sUahl_PE-90" value="False" style="text;html=1;align=center;verticalAlign=middle;resizable=0;points=[];autosize=1;strokeColor=none;fillColor=none;" vertex="1" parent="1">
          <mxGeometry x="220" y="205" width="50" height="30" as="geometry" />
        </mxCell>
        <mxCell id="TNVUAh6CWTh6sUahl_PE-91" value="" style="endArrow=classic;html=1;rounded=0;exitX=0;exitY=0.5;exitDx=0;exitDy=0;" edge="1" parent="1" source="TNVUAh6CWTh6sUahl_PE-70" target="TNVUAh6CWTh6sUahl_PE-92">
          <mxGeometry width="50" height="50" relative="1" as="geometry">
            <mxPoint x="400" y="380" as="sourcePoint" />
            <mxPoint x="450" y="330" as="targetPoint" />
          </mxGeometry>
        </mxCell>
        <mxCell id="TNVUAh6CWTh6sUahl_PE-92" value="" style="ellipse;whiteSpace=wrap;html=1;aspect=fixed;" vertex="1" parent="1">
          <mxGeometry x="60" y="495" width="20" height="20" as="geometry" />
        </mxCell>
        <mxCell id="TNVUAh6CWTh6sUahl_PE-93" value="" style="endArrow=classic;html=1;rounded=0;exitX=0.5;exitY=0;exitDx=0;exitDy=0;" edge="1" parent="1" source="TNVUAh6CWTh6sUahl_PE-92" target="TNVUAh6CWTh6sUahl_PE-94">
          <mxGeometry width="50" height="50" relative="1" as="geometry">
            <mxPoint x="400" y="380" as="sourcePoint" />
            <mxPoint x="450" y="330" as="targetPoint" />
          </mxGeometry>
        </mxCell>
        <mxCell id="TNVUAh6CWTh6sUahl_PE-94" value="" style="ellipse;whiteSpace=wrap;html=1;aspect=fixed;" vertex="1" parent="1">
          <mxGeometry x="60" y="225" width="20" height="20" as="geometry" />
        </mxCell>
        <mxCell id="TNVUAh6CWTh6sUahl_PE-95" value="" style="endArrow=classic;html=1;rounded=0;exitX=1;exitY=0.5;exitDx=0;exitDy=0;entryX=0;entryY=0.5;entryDx=0;entryDy=0;" edge="1" parent="1" source="TNVUAh6CWTh6sUahl_PE-94" target="TNVUAh6CWTh6sUahl_PE-65">
          <mxGeometry width="50" height="50" relative="1" as="geometry">
            <mxPoint x="400" y="380" as="sourcePoint" />
            <mxPoint x="120" y="240" as="targetPoint" />
          </mxGeometry>
        </mxCell>
        <mxCell id="TNVUAh6CWTh6sUahl_PE-96" value="False" style="text;html=1;align=center;verticalAlign=middle;resizable=0;points=[];autosize=1;strokeColor=none;fillColor=none;" vertex="1" parent="1">
          <mxGeometry x="80" y="485" width="50" height="30" as="geometry" />
        </mxCell>
        <mxCell id="TNVUAh6CWTh6sUahl_PE-97" value="" style="endArrow=classic;html=1;rounded=0;exitX=0;exitY=0.5;exitDx=0;exitDy=0;" edge="1" parent="1" source="TNVUAh6CWTh6sUahl_PE-75">
          <mxGeometry width="50" height="50" relative="1" as="geometry">
            <mxPoint x="400" y="580" as="sourcePoint" />
            <mxPoint y="825" as="targetPoint" />
          </mxGeometry>
        </mxCell>
        <mxCell id="TNVUAh6CWTh6sUahl_PE-99" value="" style="ellipse;whiteSpace=wrap;html=1;aspect=fixed;" vertex="1" parent="1">
          <mxGeometry x="-20" y="815" width="20" height="20" as="geometry" />
        </mxCell>
        <mxCell id="TNVUAh6CWTh6sUahl_PE-100" value="" style="endArrow=classic;html=1;rounded=0;exitX=0.5;exitY=0;exitDx=0;exitDy=0;" edge="1" parent="1" source="TNVUAh6CWTh6sUahl_PE-99" target="TNVUAh6CWTh6sUahl_PE-101">
          <mxGeometry width="50" height="50" relative="1" as="geometry">
            <mxPoint x="400" y="670" as="sourcePoint" />
            <mxPoint x="450" y="620" as="targetPoint" />
          </mxGeometry>
        </mxCell>
        <mxCell id="TNVUAh6CWTh6sUahl_PE-101" value="" style="ellipse;whiteSpace=wrap;html=1;aspect=fixed;" vertex="1" parent="1">
          <mxGeometry x="-20" y="225" width="20" height="20" as="geometry" />
        </mxCell>
        <mxCell id="TNVUAh6CWTh6sUahl_PE-102" value="" style="endArrow=classic;html=1;rounded=0;exitX=1;exitY=0.5;exitDx=0;exitDy=0;entryX=0;entryY=0.5;entryDx=0;entryDy=0;" edge="1" parent="1" source="TNVUAh6CWTh6sUahl_PE-101" target="TNVUAh6CWTh6sUahl_PE-94">
          <mxGeometry width="50" height="50" relative="1" as="geometry">
            <mxPoint x="400" y="380" as="sourcePoint" />
            <mxPoint x="450" y="330" as="targetPoint" />
          </mxGeometry>
        </mxCell>
        <mxCell id="TNVUAh6CWTh6sUahl_PE-103" value="True" style="text;html=1;align=center;verticalAlign=middle;resizable=0;points=[];autosize=1;strokeColor=none;fillColor=none;" vertex="1" parent="1">
          <mxGeometry x="450" y="640" width="50" height="30" as="geometry" />
        </mxCell>
        <mxCell id="TNVUAh6CWTh6sUahl_PE-108" value="" style="endArrow=classic;html=1;rounded=0;exitX=0.5;exitY=0;exitDx=0;exitDy=0;" edge="1" parent="1" source="TNVUAh6CWTh6sUahl_PE-80" target="TNVUAh6CWTh6sUahl_PE-109">
          <mxGeometry width="50" height="50" relative="1" as="geometry">
            <mxPoint x="400" y="580" as="sourcePoint" />
            <mxPoint x="450" y="530" as="targetPoint" />
          </mxGeometry>
        </mxCell>
        <mxCell id="TNVUAh6CWTh6sUahl_PE-111" value="False" style="edgeLabel;html=1;align=center;verticalAlign=middle;resizable=0;points=[];" vertex="1" connectable="0" parent="TNVUAh6CWTh6sUahl_PE-108">
          <mxGeometry x="-0.2042" y="-3" relative="1" as="geometry">
            <mxPoint as="offset" />
          </mxGeometry>
        </mxCell>
        <mxCell id="TNVUAh6CWTh6sUahl_PE-109" value="" style="ellipse;whiteSpace=wrap;html=1;aspect=fixed;" vertex="1" parent="1">
          <mxGeometry x="385" y="495" width="20" height="20" as="geometry" />
        </mxCell>
        <mxCell id="TNVUAh6CWTh6sUahl_PE-110" value="" style="endArrow=classic;html=1;rounded=0;exitX=0;exitY=0.5;exitDx=0;exitDy=0;entryX=1;entryY=0.5;entryDx=0;entryDy=0;" edge="1" parent="1" source="TNVUAh6CWTh6sUahl_PE-109" target="TNVUAh6CWTh6sUahl_PE-70">
          <mxGeometry width="50" height="50" relative="1" as="geometry">
            <mxPoint x="400" y="580" as="sourcePoint" />
            <mxPoint x="450" y="530" as="targetPoint" />
          </mxGeometry>
        </mxCell>
        <mxCell id="TNVUAh6CWTh6sUahl_PE-112" value="" style="endArrow=classic;html=1;rounded=0;exitX=0;exitY=0.5;exitDx=0;exitDy=0;entryX=1;entryY=0.5;entryDx=0;entryDy=0;" edge="1" parent="1" source="TNVUAh6CWTh6sUahl_PE-85" target="TNVUAh6CWTh6sUahl_PE-109">
          <mxGeometry width="50" height="50" relative="1" as="geometry">
            <mxPoint x="400" y="380" as="sourcePoint" />
            <mxPoint x="450" y="330" as="targetPoint" />
          </mxGeometry>
        </mxCell>
        <mxCell id="TNVUAh6CWTh6sUahl_PE-113" value="False" style="text;html=1;align=center;verticalAlign=middle;resizable=0;points=[];autosize=1;strokeColor=none;fillColor=none;" vertex="1" parent="1">
          <mxGeometry x="435" y="475" width="50" height="30" as="geometry" />
        </mxCell>
        <mxCell id="TNVUAh6CWTh6sUahl_PE-114" value="True" style="text;html=1;align=center;verticalAlign=middle;resizable=0;points=[];autosize=1;strokeColor=none;fillColor=none;" vertex="1" parent="1">
          <mxGeometry x="555" y="405" width="50" height="30" as="geometry" />
        </mxCell>
        <mxCell id="TNVUAh6CWTh6sUahl_PE-115" value="End" style="ellipse;whiteSpace=wrap;html=1;" vertex="1" parent="1">
          <mxGeometry x="510" y="195" width="120" height="80" as="geometry" />
        </mxCell>
        <mxCell id="TNVUAh6CWTh6sUahl_PE-116" value="" style="endArrow=classic;html=1;rounded=0;exitX=0.5;exitY=0;exitDx=0;exitDy=0;" edge="1" parent="1" source="TNVUAh6CWTh6sUahl_PE-87" target="TNVUAh6CWTh6sUahl_PE-115">
          <mxGeometry width="50" height="50" relative="1" as="geometry">
            <mxPoint x="400" y="280" as="sourcePoint" />
            <mxPoint x="450" y="230" as="targetPoint" />
          </mxGeometry>
        </mxCell>
        <mxCell id="TNVUAh6CWTh6sUahl_PE-117" value="" style="endArrow=classic;html=1;rounded=0;exitX=1;exitY=0.5;exitDx=0;exitDy=0;entryX=0;entryY=0.5;entryDx=0;entryDy=0;" edge="1" parent="1" source="TNVUAh6CWTh6sUahl_PE-89" target="TNVUAh6CWTh6sUahl_PE-115">
          <mxGeometry width="50" height="50" relative="1" as="geometry">
            <mxPoint x="400" y="280" as="sourcePoint" />
            <mxPoint x="450" y="230" as="targetPoint" />
          </mxGeometry>
        </mxCell>
        <mxCell id="TNVUAh6CWTh6sUahl_PE-118" value="&lt;font style=&quot;font-size: 36px;&quot;&gt;checkRow&lt;/font&gt;" style="text;html=1;strokeColor=none;fillColor=none;align=center;verticalAlign=middle;whiteSpace=wrap;rounded=0;" vertex="1" parent="1">
          <mxGeometry x="410" y="80" width="60" height="30" as="geometry" />
        </mxCell>
      </root>
    </mxGraphModel>
  </diagram>
  <diagram id="OidQ8r00QK1aU3EWGm44" name="checkColumn">
    <mxGraphModel dx="2140" dy="619" grid="1" gridSize="10" guides="1" tooltips="1" connect="1" arrows="1" fold="1" page="1" pageScale="1" pageWidth="850" pageHeight="1100" math="0" shadow="0">
      <root>
        <mxCell id="0" />
        <mxCell id="1" parent="0" />
        <mxCell id="A65M_k67MsvlT55FgUt9-1" value="Start" style="ellipse;whiteSpace=wrap;html=1;" vertex="1" parent="1">
          <mxGeometry x="120" y="30" width="120" height="80" as="geometry" />
        </mxCell>
        <mxCell id="A65M_k67MsvlT55FgUt9-2" value="" style="endArrow=classic;html=1;rounded=0;exitX=0.5;exitY=1;exitDx=0;exitDy=0;" edge="1" parent="1" source="A65M_k67MsvlT55FgUt9-1" target="A65M_k67MsvlT55FgUt9-3">
          <mxGeometry width="50" height="50" relative="1" as="geometry">
            <mxPoint x="400" y="250" as="sourcePoint" />
            <mxPoint x="450" y="200" as="targetPoint" />
          </mxGeometry>
        </mxCell>
        <mxCell id="A65M_k67MsvlT55FgUt9-3" value="for row from&amp;nbsp;&lt;br&gt;0 to size-1" style="rhombus;whiteSpace=wrap;html=1;" vertex="1" parent="1">
          <mxGeometry x="125" y="180" width="110" height="110" as="geometry" />
        </mxCell>
        <mxCell id="A65M_k67MsvlT55FgUt9-4" value="" style="endArrow=classic;html=1;rounded=0;exitX=0.5;exitY=1;exitDx=0;exitDy=0;" edge="1" parent="1" source="A65M_k67MsvlT55FgUt9-3" target="A65M_k67MsvlT55FgUt9-5">
          <mxGeometry width="50" height="50" relative="1" as="geometry">
            <mxPoint x="400" y="340" as="sourcePoint" />
            <mxPoint x="450" y="290" as="targetPoint" />
          </mxGeometry>
        </mxCell>
        <mxCell id="A65M_k67MsvlT55FgUt9-5" value="countX &amp;lt;= 0" style="rounded=0;whiteSpace=wrap;html=1;" vertex="1" parent="1">
          <mxGeometry x="120" y="340" width="120" height="60" as="geometry" />
        </mxCell>
        <mxCell id="A65M_k67MsvlT55FgUt9-6" value="" style="endArrow=classic;html=1;rounded=0;exitX=0.5;exitY=1;exitDx=0;exitDy=0;" edge="1" parent="1" source="A65M_k67MsvlT55FgUt9-5" target="A65M_k67MsvlT55FgUt9-7">
          <mxGeometry width="50" height="50" relative="1" as="geometry">
            <mxPoint x="400" y="340" as="sourcePoint" />
            <mxPoint x="450" y="290" as="targetPoint" />
          </mxGeometry>
        </mxCell>
        <mxCell id="A65M_k67MsvlT55FgUt9-7" value="for column from row to (size*size)-1" style="rhombus;whiteSpace=wrap;html=1;" vertex="1" parent="1">
          <mxGeometry x="125" y="450" width="110" height="110" as="geometry" />
        </mxCell>
        <mxCell id="A65M_k67MsvlT55FgUt9-8" value="True" style="text;html=1;align=center;verticalAlign=middle;resizable=0;points=[];autosize=1;strokeColor=none;fillColor=none;" vertex="1" parent="1">
          <mxGeometry x="165" y="295" width="50" height="30" as="geometry" />
        </mxCell>
        <mxCell id="A65M_k67MsvlT55FgUt9-9" value="" style="endArrow=classic;html=1;rounded=0;exitX=0.5;exitY=1;exitDx=0;exitDy=0;" edge="1" parent="1" source="A65M_k67MsvlT55FgUt9-7" target="A65M_k67MsvlT55FgUt9-11">
          <mxGeometry width="50" height="50" relative="1" as="geometry">
            <mxPoint x="400" y="430" as="sourcePoint" />
            <mxPoint x="450" y="380" as="targetPoint" />
          </mxGeometry>
        </mxCell>
        <mxCell id="A65M_k67MsvlT55FgUt9-10" value="" style="edgeStyle=orthogonalEdgeStyle;rounded=0;orthogonalLoop=1;jettySize=auto;html=1;" edge="1" parent="1" source="A65M_k67MsvlT55FgUt9-11" target="A65M_k67MsvlT55FgUt9-13">
          <mxGeometry relative="1" as="geometry" />
        </mxCell>
        <mxCell id="A65M_k67MsvlT55FgUt9-11" value="if random[row]&lt;br&gt;not equal to &#39;x&#39;" style="rhombus;whiteSpace=wrap;html=1;" vertex="1" parent="1">
          <mxGeometry x="125" y="610" width="110" height="110" as="geometry" />
        </mxCell>
        <mxCell id="A65M_k67MsvlT55FgUt9-12" value="" style="endArrow=classic;html=1;rounded=0;exitX=0.5;exitY=1;exitDx=0;exitDy=0;" edge="1" parent="1" source="A65M_k67MsvlT55FgUt9-11" target="A65M_k67MsvlT55FgUt9-13">
          <mxGeometry width="50" height="50" relative="1" as="geometry">
            <mxPoint x="400" y="580" as="sourcePoint" />
            <mxPoint x="450" y="530" as="targetPoint" />
          </mxGeometry>
        </mxCell>
        <mxCell id="A65M_k67MsvlT55FgUt9-13" value="break?" style="rhombus;whiteSpace=wrap;html=1;" vertex="1" parent="1">
          <mxGeometry x="125" y="770" width="110" height="110" as="geometry" />
        </mxCell>
        <mxCell id="A65M_k67MsvlT55FgUt9-14" value="True" style="text;html=1;align=center;verticalAlign=middle;resizable=0;points=[];autosize=1;strokeColor=none;fillColor=none;" vertex="1" parent="1">
          <mxGeometry x="165" y="565" width="50" height="30" as="geometry" />
        </mxCell>
        <mxCell id="A65M_k67MsvlT55FgUt9-15" value="True" style="text;html=1;align=center;verticalAlign=middle;resizable=0;points=[];autosize=1;strokeColor=none;fillColor=none;" vertex="1" parent="1">
          <mxGeometry x="165" y="725" width="50" height="30" as="geometry" />
        </mxCell>
        <mxCell id="A65M_k67MsvlT55FgUt9-16" value="" style="endArrow=classic;html=1;rounded=0;exitX=1;exitY=0.5;exitDx=0;exitDy=0;" edge="1" parent="1" source="A65M_k67MsvlT55FgUt9-11" target="A65M_k67MsvlT55FgUt9-17">
          <mxGeometry width="50" height="50" relative="1" as="geometry">
            <mxPoint x="400" y="590" as="sourcePoint" />
            <mxPoint x="450" y="540" as="targetPoint" />
          </mxGeometry>
        </mxCell>
        <mxCell id="A65M_k67MsvlT55FgUt9-17" value="if random[row]&lt;br&gt;equal == &#39;x&#39;" style="rhombus;whiteSpace=wrap;html=1;" vertex="1" parent="1">
          <mxGeometry x="340" y="610" width="110" height="110" as="geometry" />
        </mxCell>
        <mxCell id="A65M_k67MsvlT55FgUt9-18" value="False" style="text;html=1;align=center;verticalAlign=middle;resizable=0;points=[];autosize=1;strokeColor=none;fillColor=none;" vertex="1" parent="1">
          <mxGeometry x="250" y="640" width="50" height="30" as="geometry" />
        </mxCell>
        <mxCell id="A65M_k67MsvlT55FgUt9-19" value="" style="endArrow=classic;html=1;rounded=0;exitX=1;exitY=0.5;exitDx=0;exitDy=0;" edge="1" parent="1" source="A65M_k67MsvlT55FgUt9-17" target="A65M_k67MsvlT55FgUt9-20">
          <mxGeometry width="50" height="50" relative="1" as="geometry">
            <mxPoint x="400" y="480" as="sourcePoint" />
            <mxPoint x="450" y="430" as="targetPoint" />
          </mxGeometry>
        </mxCell>
        <mxCell id="A65M_k67MsvlT55FgUt9-20" value="countX &amp;lt;= countX + 1" style="rounded=0;whiteSpace=wrap;html=1;" vertex="1" parent="1">
          <mxGeometry x="510" y="635" width="120" height="60" as="geometry" />
        </mxCell>
        <mxCell id="A65M_k67MsvlT55FgUt9-21" value="" style="endArrow=classic;html=1;rounded=0;exitX=0.5;exitY=0;exitDx=0;exitDy=0;" edge="1" parent="1" source="A65M_k67MsvlT55FgUt9-20" target="A65M_k67MsvlT55FgUt9-22">
          <mxGeometry width="50" height="50" relative="1" as="geometry">
            <mxPoint x="400" y="580" as="sourcePoint" />
            <mxPoint x="450" y="530" as="targetPoint" />
          </mxGeometry>
        </mxCell>
        <mxCell id="A65M_k67MsvlT55FgUt9-22" value="if countX equal to&lt;br&gt;size" style="rhombus;whiteSpace=wrap;html=1;" vertex="1" parent="1">
          <mxGeometry x="515" y="450" width="110" height="110" as="geometry" />
        </mxCell>
        <mxCell id="A65M_k67MsvlT55FgUt9-23" value="" style="endArrow=classic;html=1;rounded=0;exitX=0.5;exitY=0;exitDx=0;exitDy=0;" edge="1" parent="1" source="A65M_k67MsvlT55FgUt9-22" target="A65M_k67MsvlT55FgUt9-24">
          <mxGeometry width="50" height="50" relative="1" as="geometry">
            <mxPoint x="400" y="380" as="sourcePoint" />
            <mxPoint x="450" y="330" as="targetPoint" />
          </mxGeometry>
        </mxCell>
        <mxCell id="A65M_k67MsvlT55FgUt9-24" value="return False" style="shape=parallelogram;perimeter=parallelogramPerimeter;whiteSpace=wrap;html=1;fixedSize=1;" vertex="1" parent="1">
          <mxGeometry x="510" y="325" width="120" height="60" as="geometry" />
        </mxCell>
        <mxCell id="A65M_k67MsvlT55FgUt9-25" value="" style="endArrow=classic;html=1;rounded=0;exitX=1;exitY=0.5;exitDx=0;exitDy=0;" edge="1" parent="1" source="A65M_k67MsvlT55FgUt9-3" target="A65M_k67MsvlT55FgUt9-26">
          <mxGeometry width="50" height="50" relative="1" as="geometry">
            <mxPoint x="400" y="380" as="sourcePoint" />
            <mxPoint x="450" y="330" as="targetPoint" />
          </mxGeometry>
        </mxCell>
        <mxCell id="A65M_k67MsvlT55FgUt9-26" value="return True" style="shape=parallelogram;perimeter=parallelogramPerimeter;whiteSpace=wrap;html=1;fixedSize=1;" vertex="1" parent="1">
          <mxGeometry x="270" y="205" width="120" height="60" as="geometry" />
        </mxCell>
        <mxCell id="A65M_k67MsvlT55FgUt9-27" value="False" style="text;html=1;align=center;verticalAlign=middle;resizable=0;points=[];autosize=1;strokeColor=none;fillColor=none;" vertex="1" parent="1">
          <mxGeometry x="220" y="205" width="50" height="30" as="geometry" />
        </mxCell>
        <mxCell id="A65M_k67MsvlT55FgUt9-28" value="" style="endArrow=classic;html=1;rounded=0;exitX=0;exitY=0.5;exitDx=0;exitDy=0;" edge="1" parent="1" source="A65M_k67MsvlT55FgUt9-7" target="A65M_k67MsvlT55FgUt9-29">
          <mxGeometry width="50" height="50" relative="1" as="geometry">
            <mxPoint x="400" y="380" as="sourcePoint" />
            <mxPoint x="450" y="330" as="targetPoint" />
          </mxGeometry>
        </mxCell>
        <mxCell id="A65M_k67MsvlT55FgUt9-29" value="" style="ellipse;whiteSpace=wrap;html=1;aspect=fixed;" vertex="1" parent="1">
          <mxGeometry x="60" y="495" width="20" height="20" as="geometry" />
        </mxCell>
        <mxCell id="A65M_k67MsvlT55FgUt9-30" value="" style="endArrow=classic;html=1;rounded=0;exitX=0.5;exitY=0;exitDx=0;exitDy=0;" edge="1" parent="1" source="A65M_k67MsvlT55FgUt9-29" target="A65M_k67MsvlT55FgUt9-31">
          <mxGeometry width="50" height="50" relative="1" as="geometry">
            <mxPoint x="400" y="380" as="sourcePoint" />
            <mxPoint x="450" y="330" as="targetPoint" />
          </mxGeometry>
        </mxCell>
        <mxCell id="A65M_k67MsvlT55FgUt9-31" value="" style="ellipse;whiteSpace=wrap;html=1;aspect=fixed;" vertex="1" parent="1">
          <mxGeometry x="60" y="225" width="20" height="20" as="geometry" />
        </mxCell>
        <mxCell id="A65M_k67MsvlT55FgUt9-32" value="" style="endArrow=classic;html=1;rounded=0;exitX=1;exitY=0.5;exitDx=0;exitDy=0;entryX=0;entryY=0.5;entryDx=0;entryDy=0;" edge="1" parent="1" source="A65M_k67MsvlT55FgUt9-31" target="A65M_k67MsvlT55FgUt9-3">
          <mxGeometry width="50" height="50" relative="1" as="geometry">
            <mxPoint x="400" y="380" as="sourcePoint" />
            <mxPoint x="120" y="240" as="targetPoint" />
          </mxGeometry>
        </mxCell>
        <mxCell id="A65M_k67MsvlT55FgUt9-33" value="False" style="text;html=1;align=center;verticalAlign=middle;resizable=0;points=[];autosize=1;strokeColor=none;fillColor=none;" vertex="1" parent="1">
          <mxGeometry x="80" y="485" width="50" height="30" as="geometry" />
        </mxCell>
        <mxCell id="A65M_k67MsvlT55FgUt9-34" value="" style="endArrow=classic;html=1;rounded=0;exitX=0;exitY=0.5;exitDx=0;exitDy=0;" edge="1" parent="1" source="A65M_k67MsvlT55FgUt9-13">
          <mxGeometry width="50" height="50" relative="1" as="geometry">
            <mxPoint x="400" y="580" as="sourcePoint" />
            <mxPoint y="825" as="targetPoint" />
          </mxGeometry>
        </mxCell>
        <mxCell id="A65M_k67MsvlT55FgUt9-35" value="" style="ellipse;whiteSpace=wrap;html=1;aspect=fixed;" vertex="1" parent="1">
          <mxGeometry x="-20" y="815" width="20" height="20" as="geometry" />
        </mxCell>
        <mxCell id="A65M_k67MsvlT55FgUt9-36" value="" style="endArrow=classic;html=1;rounded=0;exitX=0.5;exitY=0;exitDx=0;exitDy=0;" edge="1" parent="1" source="A65M_k67MsvlT55FgUt9-35" target="A65M_k67MsvlT55FgUt9-37">
          <mxGeometry width="50" height="50" relative="1" as="geometry">
            <mxPoint x="400" y="670" as="sourcePoint" />
            <mxPoint x="450" y="620" as="targetPoint" />
          </mxGeometry>
        </mxCell>
        <mxCell id="A65M_k67MsvlT55FgUt9-37" value="" style="ellipse;whiteSpace=wrap;html=1;aspect=fixed;" vertex="1" parent="1">
          <mxGeometry x="-20" y="225" width="20" height="20" as="geometry" />
        </mxCell>
        <mxCell id="A65M_k67MsvlT55FgUt9-38" value="" style="endArrow=classic;html=1;rounded=0;exitX=1;exitY=0.5;exitDx=0;exitDy=0;entryX=0;entryY=0.5;entryDx=0;entryDy=0;" edge="1" parent="1" source="A65M_k67MsvlT55FgUt9-37" target="A65M_k67MsvlT55FgUt9-31">
          <mxGeometry width="50" height="50" relative="1" as="geometry">
            <mxPoint x="400" y="380" as="sourcePoint" />
            <mxPoint x="450" y="330" as="targetPoint" />
          </mxGeometry>
        </mxCell>
        <mxCell id="A65M_k67MsvlT55FgUt9-39" value="True" style="text;html=1;align=center;verticalAlign=middle;resizable=0;points=[];autosize=1;strokeColor=none;fillColor=none;" vertex="1" parent="1">
          <mxGeometry x="450" y="640" width="50" height="30" as="geometry" />
        </mxCell>
        <mxCell id="A65M_k67MsvlT55FgUt9-40" value="" style="endArrow=classic;html=1;rounded=0;exitX=0.5;exitY=0;exitDx=0;exitDy=0;" edge="1" parent="1" source="A65M_k67MsvlT55FgUt9-17" target="A65M_k67MsvlT55FgUt9-42">
          <mxGeometry width="50" height="50" relative="1" as="geometry">
            <mxPoint x="400" y="580" as="sourcePoint" />
            <mxPoint x="450" y="530" as="targetPoint" />
          </mxGeometry>
        </mxCell>
        <mxCell id="A65M_k67MsvlT55FgUt9-41" value="False" style="edgeLabel;html=1;align=center;verticalAlign=middle;resizable=0;points=[];" vertex="1" connectable="0" parent="A65M_k67MsvlT55FgUt9-40">
          <mxGeometry x="-0.2042" y="-3" relative="1" as="geometry">
            <mxPoint as="offset" />
          </mxGeometry>
        </mxCell>
        <mxCell id="A65M_k67MsvlT55FgUt9-42" value="" style="ellipse;whiteSpace=wrap;html=1;aspect=fixed;" vertex="1" parent="1">
          <mxGeometry x="385" y="495" width="20" height="20" as="geometry" />
        </mxCell>
        <mxCell id="A65M_k67MsvlT55FgUt9-43" value="" style="endArrow=classic;html=1;rounded=0;exitX=0;exitY=0.5;exitDx=0;exitDy=0;entryX=1;entryY=0.5;entryDx=0;entryDy=0;" edge="1" parent="1" source="A65M_k67MsvlT55FgUt9-42" target="A65M_k67MsvlT55FgUt9-7">
          <mxGeometry width="50" height="50" relative="1" as="geometry">
            <mxPoint x="400" y="580" as="sourcePoint" />
            <mxPoint x="450" y="530" as="targetPoint" />
          </mxGeometry>
        </mxCell>
        <mxCell id="A65M_k67MsvlT55FgUt9-44" value="" style="endArrow=classic;html=1;rounded=0;exitX=0;exitY=0.5;exitDx=0;exitDy=0;entryX=1;entryY=0.5;entryDx=0;entryDy=0;" edge="1" parent="1" source="A65M_k67MsvlT55FgUt9-22" target="A65M_k67MsvlT55FgUt9-42">
          <mxGeometry width="50" height="50" relative="1" as="geometry">
            <mxPoint x="400" y="380" as="sourcePoint" />
            <mxPoint x="450" y="330" as="targetPoint" />
          </mxGeometry>
        </mxCell>
        <mxCell id="A65M_k67MsvlT55FgUt9-45" value="False" style="text;html=1;align=center;verticalAlign=middle;resizable=0;points=[];autosize=1;strokeColor=none;fillColor=none;" vertex="1" parent="1">
          <mxGeometry x="435" y="475" width="50" height="30" as="geometry" />
        </mxCell>
        <mxCell id="A65M_k67MsvlT55FgUt9-46" value="True" style="text;html=1;align=center;verticalAlign=middle;resizable=0;points=[];autosize=1;strokeColor=none;fillColor=none;" vertex="1" parent="1">
          <mxGeometry x="555" y="405" width="50" height="30" as="geometry" />
        </mxCell>
        <mxCell id="A65M_k67MsvlT55FgUt9-47" value="End" style="ellipse;whiteSpace=wrap;html=1;" vertex="1" parent="1">
          <mxGeometry x="510" y="195" width="120" height="80" as="geometry" />
        </mxCell>
        <mxCell id="A65M_k67MsvlT55FgUt9-48" value="" style="endArrow=classic;html=1;rounded=0;exitX=0.5;exitY=0;exitDx=0;exitDy=0;" edge="1" parent="1" source="A65M_k67MsvlT55FgUt9-24" target="A65M_k67MsvlT55FgUt9-47">
          <mxGeometry width="50" height="50" relative="1" as="geometry">
            <mxPoint x="400" y="280" as="sourcePoint" />
            <mxPoint x="450" y="230" as="targetPoint" />
          </mxGeometry>
        </mxCell>
        <mxCell id="A65M_k67MsvlT55FgUt9-49" value="" style="endArrow=classic;html=1;rounded=0;exitX=1;exitY=0.5;exitDx=0;exitDy=0;entryX=0;entryY=0.5;entryDx=0;entryDy=0;" edge="1" parent="1" source="A65M_k67MsvlT55FgUt9-26" target="A65M_k67MsvlT55FgUt9-47">
          <mxGeometry width="50" height="50" relative="1" as="geometry">
            <mxPoint x="400" y="280" as="sourcePoint" />
            <mxPoint x="450" y="230" as="targetPoint" />
          </mxGeometry>
        </mxCell>
        <mxCell id="A65M_k67MsvlT55FgUt9-50" value="&lt;font style=&quot;font-size: 36px;&quot;&gt;checkColumn&lt;/font&gt;" style="text;html=1;strokeColor=none;fillColor=none;align=center;verticalAlign=middle;whiteSpace=wrap;rounded=0;" vertex="1" parent="1">
          <mxGeometry x="410" y="80" width="60" height="30" as="geometry" />
        </mxCell>
      </root>
    </mxGraphModel>
  </diagram>
  <diagram id="FFM8ArfS1srS-UDI4HHK" name="removeRandom">
    <mxGraphModel dx="1290" dy="619" grid="1" gridSize="10" guides="1" tooltips="1" connect="1" arrows="1" fold="1" page="1" pageScale="1" pageWidth="850" pageHeight="1100" math="0" shadow="0">
      <root>
        <mxCell id="0" />
        <mxCell id="1" parent="0" />
        <mxCell id="vARq6B4oLWyCPrB-OBk--3" value="start" style="ellipse;whiteSpace=wrap;html=1;" vertex="1" parent="1">
          <mxGeometry x="130" y="60" width="120" height="80" as="geometry" />
        </mxCell>
        <mxCell id="vARq6B4oLWyCPrB-OBk--4" value="" style="endArrow=classic;html=1;rounded=0;exitX=0.5;exitY=1;exitDx=0;exitDy=0;" edge="1" parent="1" source="vARq6B4oLWyCPrB-OBk--3" target="vARq6B4oLWyCPrB-OBk--5">
          <mxGeometry width="50" height="50" relative="1" as="geometry">
            <mxPoint x="430" y="250" as="sourcePoint" />
            <mxPoint x="480" y="200" as="targetPoint" />
          </mxGeometry>
        </mxCell>
        <mxCell id="vARq6B4oLWyCPrB-OBk--5" value="randomNum &amp;lt;= random.randiant(0, (size*size))&lt;br&gt;index &amp;lt;= index + randomNum&lt;br&gt;x &amp;lt;= list[randomNum]&lt;br&gt;p1 &amp;lt;= p1 + x&lt;br&gt;list[randomNum] &amp;lt;= &#39;x&#39;" style="rounded=0;whiteSpace=wrap;html=1;" vertex="1" parent="1">
          <mxGeometry x="40" y="210" width="300" height="120" as="geometry" />
        </mxCell>
        <mxCell id="vARq6B4oLWyCPrB-OBk--6" value="" style="endArrow=classic;html=1;rounded=0;exitX=0.5;exitY=1;exitDx=0;exitDy=0;entryX=0.5;entryY=0;entryDx=0;entryDy=0;" edge="1" parent="1" source="vARq6B4oLWyCPrB-OBk--5" target="vARq6B4oLWyCPrB-OBk--8">
          <mxGeometry width="50" height="50" relative="1" as="geometry">
            <mxPoint x="430" y="200" as="sourcePoint" />
            <mxPoint x="440.81081081081084" y="170" as="targetPoint" />
          </mxGeometry>
        </mxCell>
        <mxCell id="vARq6B4oLWyCPrB-OBk--8" value="return p1, index" style="shape=parallelogram;perimeter=parallelogramPerimeter;whiteSpace=wrap;html=1;fixedSize=1;" vertex="1" parent="1">
          <mxGeometry x="130" y="420" width="120" height="60" as="geometry" />
        </mxCell>
        <mxCell id="waZQeRY7BGi8YRmw0eua-1" value="&lt;font style=&quot;font-size: 48px;&quot;&gt;removeRandom&lt;/font&gt;" style="text;html=1;strokeColor=none;fillColor=none;align=center;verticalAlign=middle;whiteSpace=wrap;rounded=0;" vertex="1" parent="1">
          <mxGeometry x="430" y="60" width="60" height="30" as="geometry" />
        </mxCell>
        <mxCell id="fQLIc0n3aXnmv7eFTD5M-1" value="" style="endArrow=classic;html=1;rounded=0;exitX=0.5;exitY=1;exitDx=0;exitDy=0;" edge="1" parent="1" source="vARq6B4oLWyCPrB-OBk--8" target="fQLIc0n3aXnmv7eFTD5M-2">
          <mxGeometry width="50" height="50" relative="1" as="geometry">
            <mxPoint x="430" y="570" as="sourcePoint" />
            <mxPoint x="480" y="520" as="targetPoint" />
          </mxGeometry>
        </mxCell>
        <mxCell id="fQLIc0n3aXnmv7eFTD5M-2" value="End" style="ellipse;whiteSpace=wrap;html=1;" vertex="1" parent="1">
          <mxGeometry x="130" y="540" width="120" height="80" as="geometry" />
        </mxCell>
      </root>
    </mxGraphModel>
  </diagram>
  <diagram id="UU7D37mSNf9x-KbiKwL_" name="printScore">
    <mxGraphModel dx="1290" dy="619" grid="1" gridSize="10" guides="1" tooltips="1" connect="1" arrows="1" fold="1" page="1" pageScale="1" pageWidth="850" pageHeight="1100" math="0" shadow="0">
      <root>
        <mxCell id="0" />
        <mxCell id="1" parent="0" />
        <mxCell id="5N_1yc7O3dqUwpumrH_d-1" value="start" style="ellipse;whiteSpace=wrap;html=1;" vertex="1" parent="1">
          <mxGeometry x="180" y="40" width="120" height="80" as="geometry" />
        </mxCell>
        <mxCell id="5N_1yc7O3dqUwpumrH_d-2" value="" style="endArrow=classic;html=1;rounded=0;exitX=0.5;exitY=1;exitDx=0;exitDy=0;" edge="1" parent="1" source="5N_1yc7O3dqUwpumrH_d-1" target="5N_1yc7O3dqUwpumrH_d-3">
          <mxGeometry width="50" height="50" relative="1" as="geometry">
            <mxPoint x="460" y="250" as="sourcePoint" />
            <mxPoint x="510" y="200" as="targetPoint" />
          </mxGeometry>
        </mxCell>
        <mxCell id="5N_1yc7O3dqUwpumrH_d-3" value="center &amp;lt;= (size*5) + (size+1)&lt;br&gt;centerter &amp;lt;= center // 2&lt;br&gt;player &amp;lt;= (centerter - 12) / 2&lt;br&gt;space &amp;lt;= &#39; &#39; * player" style="rounded=0;whiteSpace=wrap;html=1;" vertex="1" parent="1">
          <mxGeometry x="145" y="190" width="190" height="60" as="geometry" />
        </mxCell>
        <mxCell id="5N_1yc7O3dqUwpumrH_d-4" value="" style="endArrow=classic;html=1;rounded=0;exitX=0.5;exitY=1;exitDx=0;exitDy=0;" edge="1" parent="1" source="5N_1yc7O3dqUwpumrH_d-3" target="5N_1yc7O3dqUwpumrH_d-5">
          <mxGeometry width="50" height="50" relative="1" as="geometry">
            <mxPoint x="460" y="220" as="sourcePoint" />
            <mxPoint x="510" y="170" as="targetPoint" />
          </mxGeometry>
        </mxCell>
        <mxCell id="5N_1yc7O3dqUwpumrH_d-5" value="Output&lt;br&gt;space+p1+space+space+p2" style="shape=parallelogram;perimeter=parallelogramPerimeter;whiteSpace=wrap;html=1;fixedSize=1;" vertex="1" parent="1">
          <mxGeometry x="145" y="310" width="190" height="60" as="geometry" />
        </mxCell>
        <mxCell id="5N_1yc7O3dqUwpumrH_d-6" value="" style="endArrow=classic;html=1;rounded=0;exitX=0.5;exitY=1;exitDx=0;exitDy=0;" edge="1" parent="1" source="5N_1yc7O3dqUwpumrH_d-5" target="5N_1yc7O3dqUwpumrH_d-7">
          <mxGeometry width="50" height="50" relative="1" as="geometry">
            <mxPoint x="460" y="410" as="sourcePoint" />
            <mxPoint x="510" y="360" as="targetPoint" />
          </mxGeometry>
        </mxCell>
        <mxCell id="5N_1yc7O3dqUwpumrH_d-7" value="End" style="ellipse;whiteSpace=wrap;html=1;" vertex="1" parent="1">
          <mxGeometry x="180" y="430" width="120" height="80" as="geometry" />
        </mxCell>
        <mxCell id="0YW91mmEGYAYMtKuOZfd-1" value="&lt;font style=&quot;font-size: 48px;&quot;&gt;printScore&lt;/font&gt;" style="text;html=1;strokeColor=none;fillColor=none;align=center;verticalAlign=middle;whiteSpace=wrap;rounded=0;" vertex="1" parent="1">
          <mxGeometry x="460" y="170" width="60" height="30" as="geometry" />
        </mxCell>
      </root>
    </mxGraphModel>
  </diagram>
  <diagram id="dq2cfk1s6gWtijnLlfpo" name="layout">
    <mxGraphModel dx="1290" dy="619" grid="1" gridSize="10" guides="1" tooltips="1" connect="1" arrows="1" fold="1" page="1" pageScale="1" pageWidth="850" pageHeight="1100" math="0" shadow="0">
      <root>
        <mxCell id="0" />
        <mxCell id="1" parent="0" />
        <mxCell id="0vwtwfzeLMfkrhaeb-Xg-1" value="start" style="ellipse;whiteSpace=wrap;html=1;" vertex="1" parent="1">
          <mxGeometry x="150" y="60" width="120" height="80" as="geometry" />
        </mxCell>
        <mxCell id="0vwtwfzeLMfkrhaeb-Xg-2" value="" style="endArrow=classic;html=1;rounded=0;exitX=0.5;exitY=1;exitDx=0;exitDy=0;" edge="1" parent="1" source="0vwtwfzeLMfkrhaeb-Xg-1">
          <mxGeometry width="50" height="50" relative="1" as="geometry">
            <mxPoint x="470" y="210" as="sourcePoint" />
            <mxPoint x="210" y="190" as="targetPoint" />
          </mxGeometry>
        </mxCell>
        <mxCell id="0vwtwfzeLMfkrhaeb-Xg-4" value="i &amp;lt;= 0" style="rounded=0;whiteSpace=wrap;html=1;" vertex="1" parent="1">
          <mxGeometry x="150" y="190" width="120" height="60" as="geometry" />
        </mxCell>
        <mxCell id="0vwtwfzeLMfkrhaeb-Xg-5" value="" style="endArrow=classic;html=1;rounded=0;exitX=0.5;exitY=1;exitDx=0;exitDy=0;" edge="1" parent="1" source="0vwtwfzeLMfkrhaeb-Xg-4" target="0vwtwfzeLMfkrhaeb-Xg-6">
          <mxGeometry width="50" height="50" relative="1" as="geometry">
            <mxPoint x="470" y="410" as="sourcePoint" />
            <mxPoint x="520" y="360" as="targetPoint" />
          </mxGeometry>
        </mxCell>
        <mxCell id="0vwtwfzeLMfkrhaeb-Xg-6" value="for row from &lt;br&gt;0 to size-1" style="rhombus;whiteSpace=wrap;html=1;" vertex="1" parent="1">
          <mxGeometry x="155" y="310" width="110" height="110" as="geometry" />
        </mxCell>
        <mxCell id="0vwtwfzeLMfkrhaeb-Xg-7" value="" style="endArrow=classic;html=1;rounded=0;exitX=0.5;exitY=1;exitDx=0;exitDy=0;" edge="1" parent="1" source="0vwtwfzeLMfkrhaeb-Xg-6" target="0vwtwfzeLMfkrhaeb-Xg-8">
          <mxGeometry width="50" height="50" relative="1" as="geometry">
            <mxPoint x="470" y="400" as="sourcePoint" />
            <mxPoint x="520" y="350" as="targetPoint" />
          </mxGeometry>
        </mxCell>
        <mxCell id="0vwtwfzeLMfkrhaeb-Xg-8" value="Output&lt;br&gt;&#39;------&#39; * size + &#39;-&#39;" style="shape=parallelogram;perimeter=parallelogramPerimeter;whiteSpace=wrap;html=1;fixedSize=1;" vertex="1" parent="1">
          <mxGeometry x="150" y="460" width="120" height="60" as="geometry" />
        </mxCell>
        <mxCell id="0vwtwfzeLMfkrhaeb-Xg-11" value="" style="endArrow=classic;html=1;rounded=0;exitX=0.5;exitY=1;exitDx=0;exitDy=0;" edge="1" parent="1" source="0vwtwfzeLMfkrhaeb-Xg-8" target="0vwtwfzeLMfkrhaeb-Xg-12">
          <mxGeometry width="50" height="50" relative="1" as="geometry">
            <mxPoint x="470" y="490" as="sourcePoint" />
            <mxPoint x="520" y="440" as="targetPoint" />
          </mxGeometry>
        </mxCell>
        <mxCell id="0vwtwfzeLMfkrhaeb-Xg-12" value="for column from&amp;nbsp;&lt;br&gt;0 to size-1" style="rhombus;whiteSpace=wrap;html=1;" vertex="1" parent="1">
          <mxGeometry x="155" y="580" width="110" height="110" as="geometry" />
        </mxCell>
        <mxCell id="0vwtwfzeLMfkrhaeb-Xg-13" value="" style="endArrow=classic;html=1;rounded=0;exitX=1;exitY=0.5;exitDx=0;exitDy=0;" edge="1" parent="1" source="0vwtwfzeLMfkrhaeb-Xg-12" target="0vwtwfzeLMfkrhaeb-Xg-14">
          <mxGeometry width="50" height="50" relative="1" as="geometry">
            <mxPoint x="470" y="580" as="sourcePoint" />
            <mxPoint x="410" y="610" as="targetPoint" />
          </mxGeometry>
        </mxCell>
        <mxCell id="0vwtwfzeLMfkrhaeb-Xg-14" value="Output&lt;br&gt;&#39;|&#39;" style="shape=parallelogram;perimeter=parallelogramPerimeter;whiteSpace=wrap;html=1;fixedSize=1;" vertex="1" parent="1">
          <mxGeometry x="350" y="605" width="120" height="60" as="geometry" />
        </mxCell>
        <mxCell id="0vwtwfzeLMfkrhaeb-Xg-15" value="" style="endArrow=classic;html=1;rounded=0;exitX=0;exitY=0.5;exitDx=0;exitDy=0;" edge="1" parent="1" source="0vwtwfzeLMfkrhaeb-Xg-12" target="0vwtwfzeLMfkrhaeb-Xg-16">
          <mxGeometry width="50" height="50" relative="1" as="geometry">
            <mxPoint x="470" y="480" as="sourcePoint" />
            <mxPoint x="520" y="430" as="targetPoint" />
          </mxGeometry>
        </mxCell>
        <mxCell id="0vwtwfzeLMfkrhaeb-Xg-16" value="" style="ellipse;whiteSpace=wrap;html=1;aspect=fixed;" vertex="1" parent="1">
          <mxGeometry x="70" y="625" width="20" height="20" as="geometry" />
        </mxCell>
        <mxCell id="0vwtwfzeLMfkrhaeb-Xg-17" value="" style="endArrow=classic;html=1;rounded=0;exitX=0.5;exitY=0;exitDx=0;exitDy=0;" edge="1" parent="1" source="0vwtwfzeLMfkrhaeb-Xg-16" target="0vwtwfzeLMfkrhaeb-Xg-18">
          <mxGeometry width="50" height="50" relative="1" as="geometry">
            <mxPoint x="470" y="480" as="sourcePoint" />
            <mxPoint x="520" y="430" as="targetPoint" />
          </mxGeometry>
        </mxCell>
        <mxCell id="0vwtwfzeLMfkrhaeb-Xg-18" value="" style="ellipse;whiteSpace=wrap;html=1;aspect=fixed;" vertex="1" parent="1">
          <mxGeometry x="70" y="355" width="20" height="20" as="geometry" />
        </mxCell>
        <mxCell id="0vwtwfzeLMfkrhaeb-Xg-19" value="" style="endArrow=classic;html=1;rounded=0;exitX=1;exitY=0.5;exitDx=0;exitDy=0;entryX=0;entryY=0.5;entryDx=0;entryDy=0;" edge="1" parent="1" source="0vwtwfzeLMfkrhaeb-Xg-18" target="0vwtwfzeLMfkrhaeb-Xg-6">
          <mxGeometry width="50" height="50" relative="1" as="geometry">
            <mxPoint x="470" y="480" as="sourcePoint" />
            <mxPoint x="520" y="430" as="targetPoint" />
          </mxGeometry>
        </mxCell>
        <mxCell id="0vwtwfzeLMfkrhaeb-Xg-20" value="True" style="text;html=1;align=center;verticalAlign=middle;resizable=0;points=[];autosize=1;strokeColor=none;fillColor=none;" vertex="1" parent="1">
          <mxGeometry x="265" y="605" width="50" height="30" as="geometry" />
        </mxCell>
        <mxCell id="0vwtwfzeLMfkrhaeb-Xg-21" value="False" style="text;html=1;align=center;verticalAlign=middle;resizable=0;points=[];autosize=1;strokeColor=none;fillColor=none;" vertex="1" parent="1">
          <mxGeometry x="105" y="605" width="50" height="30" as="geometry" />
        </mxCell>
        <mxCell id="0vwtwfzeLMfkrhaeb-Xg-22" value="True" style="text;html=1;align=center;verticalAlign=middle;resizable=0;points=[];autosize=1;strokeColor=none;fillColor=none;" vertex="1" parent="1">
          <mxGeometry x="200" y="420" width="50" height="30" as="geometry" />
        </mxCell>
        <mxCell id="0vwtwfzeLMfkrhaeb-Xg-23" value="" style="endArrow=classic;html=1;rounded=0;exitX=1;exitY=0.5;exitDx=0;exitDy=0;" edge="1" parent="1" source="0vwtwfzeLMfkrhaeb-Xg-14" target="0vwtwfzeLMfkrhaeb-Xg-24">
          <mxGeometry width="50" height="50" relative="1" as="geometry">
            <mxPoint x="590" y="580" as="sourcePoint" />
            <mxPoint x="640" y="530" as="targetPoint" />
          </mxGeometry>
        </mxCell>
        <mxCell id="0vwtwfzeLMfkrhaeb-Xg-24" value="Output&lt;br&gt;randomNum[i]" style="shape=parallelogram;perimeter=parallelogramPerimeter;whiteSpace=wrap;html=1;fixedSize=1;" vertex="1" parent="1">
          <mxGeometry x="540" y="605" width="120" height="60" as="geometry" />
        </mxCell>
        <mxCell id="0vwtwfzeLMfkrhaeb-Xg-25" value="" style="endArrow=classic;html=1;rounded=0;exitX=1;exitY=0.5;exitDx=0;exitDy=0;" edge="1" parent="1" source="0vwtwfzeLMfkrhaeb-Xg-24" target="0vwtwfzeLMfkrhaeb-Xg-26">
          <mxGeometry width="50" height="50" relative="1" as="geometry">
            <mxPoint x="590" y="370" as="sourcePoint" />
            <mxPoint x="640" y="320" as="targetPoint" />
          </mxGeometry>
        </mxCell>
        <mxCell id="0vwtwfzeLMfkrhaeb-Xg-26" value="i &amp;lt;= i + 1" style="rounded=0;whiteSpace=wrap;html=1;" vertex="1" parent="1">
          <mxGeometry x="740" y="605" width="120" height="60" as="geometry" />
        </mxCell>
        <mxCell id="0vwtwfzeLMfkrhaeb-Xg-27" value="" style="endArrow=classic;html=1;rounded=0;exitX=1;exitY=0.5;exitDx=0;exitDy=0;" edge="1" parent="1" source="0vwtwfzeLMfkrhaeb-Xg-26" target="0vwtwfzeLMfkrhaeb-Xg-28">
          <mxGeometry width="50" height="50" relative="1" as="geometry">
            <mxPoint x="590" y="570" as="sourcePoint" />
            <mxPoint x="640" y="520" as="targetPoint" />
          </mxGeometry>
        </mxCell>
        <mxCell id="0vwtwfzeLMfkrhaeb-Xg-28" value="Output&amp;nbsp;&lt;br&gt;&#39;|&#39;" style="shape=parallelogram;perimeter=parallelogramPerimeter;whiteSpace=wrap;html=1;fixedSize=1;" vertex="1" parent="1">
          <mxGeometry x="910" y="605" width="120" height="60" as="geometry" />
        </mxCell>
        <mxCell id="0vwtwfzeLMfkrhaeb-Xg-29" value="" style="endArrow=classic;html=1;rounded=0;exitX=0.5;exitY=1;exitDx=0;exitDy=0;" edge="1" parent="1" source="0vwtwfzeLMfkrhaeb-Xg-28" target="0vwtwfzeLMfkrhaeb-Xg-30">
          <mxGeometry width="50" height="50" relative="1" as="geometry">
            <mxPoint x="590" y="560" as="sourcePoint" />
            <mxPoint x="970" y="710" as="targetPoint" />
          </mxGeometry>
        </mxCell>
        <mxCell id="0vwtwfzeLMfkrhaeb-Xg-30" value="" style="ellipse;whiteSpace=wrap;html=1;aspect=fixed;" vertex="1" parent="1">
          <mxGeometry x="960" y="730" width="20" height="20" as="geometry" />
        </mxCell>
        <mxCell id="0vwtwfzeLMfkrhaeb-Xg-31" value="" style="endArrow=classic;html=1;rounded=0;exitX=0;exitY=0.5;exitDx=0;exitDy=0;" edge="1" parent="1" source="0vwtwfzeLMfkrhaeb-Xg-30" target="0vwtwfzeLMfkrhaeb-Xg-32">
          <mxGeometry width="50" height="50" relative="1" as="geometry">
            <mxPoint x="590" y="560" as="sourcePoint" />
            <mxPoint x="640" y="510" as="targetPoint" />
          </mxGeometry>
        </mxCell>
        <mxCell id="0vwtwfzeLMfkrhaeb-Xg-32" value="" style="ellipse;whiteSpace=wrap;html=1;aspect=fixed;" vertex="1" parent="1">
          <mxGeometry x="70" y="730" width="20" height="20" as="geometry" />
        </mxCell>
        <mxCell id="0vwtwfzeLMfkrhaeb-Xg-33" value="" style="endArrow=classic;html=1;rounded=0;exitX=0.5;exitY=0;exitDx=0;exitDy=0;entryX=0.5;entryY=1;entryDx=0;entryDy=0;" edge="1" parent="1" source="0vwtwfzeLMfkrhaeb-Xg-32" target="0vwtwfzeLMfkrhaeb-Xg-16">
          <mxGeometry width="50" height="50" relative="1" as="geometry">
            <mxPoint x="590" y="560" as="sourcePoint" />
            <mxPoint x="640" y="510" as="targetPoint" />
          </mxGeometry>
        </mxCell>
        <mxCell id="0vwtwfzeLMfkrhaeb-Xg-34" value="" style="endArrow=classic;html=1;rounded=0;exitX=1;exitY=0.5;exitDx=0;exitDy=0;" edge="1" parent="1" source="0vwtwfzeLMfkrhaeb-Xg-6" target="0vwtwfzeLMfkrhaeb-Xg-35">
          <mxGeometry width="50" height="50" relative="1" as="geometry">
            <mxPoint x="590" y="360" as="sourcePoint" />
            <mxPoint x="640" y="310" as="targetPoint" />
          </mxGeometry>
        </mxCell>
        <mxCell id="0vwtwfzeLMfkrhaeb-Xg-35" value="Output&lt;br&gt;&#39;------&#39; * size + &#39;-&#39;" style="shape=parallelogram;perimeter=parallelogramPerimeter;whiteSpace=wrap;html=1;fixedSize=1;" vertex="1" parent="1">
          <mxGeometry x="305" y="335" width="120" height="60" as="geometry" />
        </mxCell>
        <mxCell id="0vwtwfzeLMfkrhaeb-Xg-36" value="" style="endArrow=classic;html=1;rounded=0;exitX=1;exitY=0.5;exitDx=0;exitDy=0;" edge="1" parent="1" source="0vwtwfzeLMfkrhaeb-Xg-35" target="0vwtwfzeLMfkrhaeb-Xg-37">
          <mxGeometry width="50" height="50" relative="1" as="geometry">
            <mxPoint x="590" y="360" as="sourcePoint" />
            <mxPoint x="640" y="310" as="targetPoint" />
          </mxGeometry>
        </mxCell>
        <mxCell id="0vwtwfzeLMfkrhaeb-Xg-37" value="End" style="ellipse;whiteSpace=wrap;html=1;" vertex="1" parent="1">
          <mxGeometry x="490" y="325" width="120" height="80" as="geometry" />
        </mxCell>
        <mxCell id="0vwtwfzeLMfkrhaeb-Xg-38" value="False" style="text;html=1;align=center;verticalAlign=middle;resizable=0;points=[];autosize=1;strokeColor=none;fillColor=none;" vertex="1" parent="1">
          <mxGeometry x="255" y="335" width="50" height="30" as="geometry" />
        </mxCell>
        <mxCell id="0vwtwfzeLMfkrhaeb-Xg-39" value="&lt;font style=&quot;font-size: 48px;&quot;&gt;layout&lt;/font&gt;" style="text;html=1;strokeColor=none;fillColor=none;align=center;verticalAlign=middle;whiteSpace=wrap;rounded=0;" vertex="1" parent="1">
          <mxGeometry x="530" y="100" width="60" height="30" as="geometry" />
        </mxCell>
      </root>
    </mxGraphModel>
  </diagram>
  <diagram id="pAokgjO-t08AEo2om7ve" name="generaterandomNumber">
    <mxGraphModel dx="1290" dy="619" grid="1" gridSize="10" guides="1" tooltips="1" connect="1" arrows="1" fold="1" page="1" pageScale="1" pageWidth="850" pageHeight="1100" math="0" shadow="0">
      <root>
        <mxCell id="0" />
        <mxCell id="1" parent="0" />
        <mxCell id="KjklvR3NStC5F5QizdAv-2" value="start" style="ellipse;whiteSpace=wrap;html=1;" vertex="1" parent="1">
          <mxGeometry x="160" y="50" width="120" height="80" as="geometry" />
        </mxCell>
        <mxCell id="KjklvR3NStC5F5QizdAv-3" value="" style="endArrow=classic;html=1;rounded=0;exitX=0.5;exitY=1;exitDx=0;exitDy=0;" edge="1" parent="1" source="KjklvR3NStC5F5QizdAv-2">
          <mxGeometry width="50" height="50" relative="1" as="geometry">
            <mxPoint x="430" y="150" as="sourcePoint" />
            <mxPoint x="220" y="180" as="targetPoint" />
          </mxGeometry>
        </mxCell>
        <mxCell id="KjklvR3NStC5F5QizdAv-4" value="while len(randomNum)&amp;nbsp;&lt;br&gt;not equal to&amp;nbsp;&lt;br&gt;(size*size)-1" style="rhombus;whiteSpace=wrap;html=1;" vertex="1" parent="1">
          <mxGeometry x="170" y="310" width="110" height="110" as="geometry" />
        </mxCell>
        <mxCell id="KjklvR3NStC5F5QizdAv-5" value="randomNum &amp;lt;= []" style="rounded=0;whiteSpace=wrap;html=1;" vertex="1" parent="1">
          <mxGeometry x="165" y="180" width="120" height="60" as="geometry" />
        </mxCell>
        <mxCell id="KjklvR3NStC5F5QizdAv-6" value="" style="endArrow=classic;html=1;rounded=0;exitX=0.5;exitY=1;exitDx=0;exitDy=0;" edge="1" parent="1" source="KjklvR3NStC5F5QizdAv-5" target="KjklvR3NStC5F5QizdAv-4">
          <mxGeometry width="50" height="50" relative="1" as="geometry">
            <mxPoint x="430" y="430" as="sourcePoint" />
            <mxPoint x="480" y="380" as="targetPoint" />
          </mxGeometry>
        </mxCell>
        <mxCell id="KjklvR3NStC5F5QizdAv-7" value="" style="endArrow=classic;html=1;rounded=0;exitX=0.5;exitY=1;exitDx=0;exitDy=0;" edge="1" parent="1" source="KjklvR3NStC5F5QizdAv-4" target="KjklvR3NStC5F5QizdAv-8">
          <mxGeometry width="50" height="50" relative="1" as="geometry">
            <mxPoint x="430" y="420" as="sourcePoint" />
            <mxPoint x="480" y="370" as="targetPoint" />
          </mxGeometry>
        </mxCell>
        <mxCell id="KjklvR3NStC5F5QizdAv-8" value="x &amp;lt;= randint(-30,30)&lt;br&gt;randomNum.append(x)" style="rounded=0;whiteSpace=wrap;html=1;" vertex="1" parent="1">
          <mxGeometry x="157.5" y="480" width="135" height="60" as="geometry" />
        </mxCell>
        <mxCell id="KjklvR3NStC5F5QizdAv-9" value="" style="endArrow=classic;html=1;rounded=0;exitX=0;exitY=0.5;exitDx=0;exitDy=0;" edge="1" parent="1" source="KjklvR3NStC5F5QizdAv-8" target="KjklvR3NStC5F5QizdAv-10">
          <mxGeometry width="50" height="50" relative="1" as="geometry">
            <mxPoint x="430" y="320" as="sourcePoint" />
            <mxPoint x="480" y="270" as="targetPoint" />
          </mxGeometry>
        </mxCell>
        <mxCell id="KjklvR3NStC5F5QizdAv-10" value="" style="ellipse;whiteSpace=wrap;html=1;aspect=fixed;rotation=30;" vertex="1" parent="1">
          <mxGeometry x="70" y="500" width="20" height="20" as="geometry" />
        </mxCell>
        <mxCell id="KjklvR3NStC5F5QizdAv-11" value="" style="endArrow=classic;html=1;rounded=0;exitX=0;exitY=0;exitDx=0;exitDy=0;" edge="1" parent="1" source="KjklvR3NStC5F5QizdAv-10" target="KjklvR3NStC5F5QizdAv-12">
          <mxGeometry width="50" height="50" relative="1" as="geometry">
            <mxPoint x="430" y="320" as="sourcePoint" />
            <mxPoint x="480" y="270" as="targetPoint" />
          </mxGeometry>
        </mxCell>
        <mxCell id="KjklvR3NStC5F5QizdAv-12" value="" style="ellipse;whiteSpace=wrap;html=1;aspect=fixed;" vertex="1" parent="1">
          <mxGeometry x="70" y="355" width="20" height="20" as="geometry" />
        </mxCell>
        <mxCell id="KjklvR3NStC5F5QizdAv-13" value="" style="endArrow=classic;html=1;rounded=0;exitX=1;exitY=0.5;exitDx=0;exitDy=0;entryX=0;entryY=0.5;entryDx=0;entryDy=0;" edge="1" parent="1" source="KjklvR3NStC5F5QizdAv-12" target="KjklvR3NStC5F5QizdAv-4">
          <mxGeometry width="50" height="50" relative="1" as="geometry">
            <mxPoint x="430" y="320" as="sourcePoint" />
            <mxPoint x="480" y="270" as="targetPoint" />
          </mxGeometry>
        </mxCell>
        <mxCell id="KjklvR3NStC5F5QizdAv-14" value="True" style="text;html=1;align=center;verticalAlign=middle;resizable=0;points=[];autosize=1;strokeColor=none;fillColor=none;" vertex="1" parent="1">
          <mxGeometry x="205" y="425" width="50" height="30" as="geometry" />
        </mxCell>
        <mxCell id="KjklvR3NStC5F5QizdAv-15" value="" style="endArrow=classic;html=1;rounded=0;exitX=1;exitY=0.5;exitDx=0;exitDy=0;" edge="1" parent="1" source="KjklvR3NStC5F5QizdAv-4" target="KjklvR3NStC5F5QizdAv-16">
          <mxGeometry width="50" height="50" relative="1" as="geometry">
            <mxPoint x="430" y="320" as="sourcePoint" />
            <mxPoint x="480" y="270" as="targetPoint" />
          </mxGeometry>
        </mxCell>
        <mxCell id="KjklvR3NStC5F5QizdAv-16" value="End" style="ellipse;whiteSpace=wrap;html=1;" vertex="1" parent="1">
          <mxGeometry x="340" y="325" width="120" height="80" as="geometry" />
        </mxCell>
        <mxCell id="KjklvR3NStC5F5QizdAv-17" value="False" style="text;html=1;align=center;verticalAlign=middle;resizable=0;points=[];autosize=1;strokeColor=none;fillColor=none;" vertex="1" parent="1">
          <mxGeometry x="280" y="345" width="50" height="30" as="geometry" />
        </mxCell>
        <mxCell id="KjklvR3NStC5F5QizdAv-18" value="&lt;font style=&quot;font-size: 36px;&quot;&gt;generaterandomNumber&lt;/font&gt;" style="text;html=1;strokeColor=none;fillColor=none;align=center;verticalAlign=middle;whiteSpace=wrap;rounded=0;" vertex="1" parent="1">
          <mxGeometry x="440" y="70" width="200" height="60" as="geometry" />
        </mxCell>
      </root>
    </mxGraphModel>
  </diagram>
  <diagram id="ZKKQcF9hvwOm8Ycs56KO" name="main">
    <mxGraphModel dx="2140" dy="619" grid="1" gridSize="10" guides="1" tooltips="1" connect="1" arrows="1" fold="1" page="1" pageScale="1" pageWidth="850" pageHeight="1100" math="0" shadow="0">
      <root>
        <mxCell id="0" />
        <mxCell id="1" parent="0" />
        <mxCell id="QLFnJS7z-377dAU-om8l-1" value="start" style="ellipse;whiteSpace=wrap;html=1;" vertex="1" parent="1">
          <mxGeometry x="197.5" y="50" width="120" height="80" as="geometry" />
        </mxCell>
        <mxCell id="QLFnJS7z-377dAU-om8l-2" value="" style="endArrow=classic;html=1;rounded=0;exitX=0.5;exitY=1;exitDx=0;exitDy=0;" edge="1" parent="1" source="QLFnJS7z-377dAU-om8l-1" target="QLFnJS7z-377dAU-om8l-5">
          <mxGeometry width="50" height="50" relative="1" as="geometry">
            <mxPoint x="490" y="170" as="sourcePoint" />
            <mxPoint x="200" y="180" as="targetPoint" />
          </mxGeometry>
        </mxCell>
        <mxCell id="QLFnJS7z-377dAU-om8l-3" value="player1 &amp;lt;= 0&lt;br style=&quot;border-color: var(--border-color); text-align: left;&quot;&gt;&lt;span style=&quot;text-align: left;&quot;&gt;player2 &amp;lt;= 0&lt;/span&gt;&lt;br style=&quot;border-color: var(--border-color); text-align: left;&quot;&gt;&lt;span style=&quot;text-align: left;&quot;&gt;storeIndex &amp;lt;= 0&lt;/span&gt;&lt;br style=&quot;border-color: var(--border-color); text-align: left;&quot;&gt;&lt;span style=&quot;text-align: left;&quot;&gt;gameRunning &amp;lt;= True&lt;/span&gt;&lt;br style=&quot;border-color: var(--border-color); text-align: left;&quot;&gt;&lt;span style=&quot;text-align: left;&quot;&gt;generateRandomNum(RANDOMNUM,GRIDSIZE)&lt;/span&gt;&lt;br style=&quot;border-color: var(--border-color); text-align: left;&quot;&gt;&lt;span style=&quot;text-align: left;&quot;&gt;layout(storeIndex,RANDOMNUM,GRIDSIZE,&quot;nothing&quot;)&lt;/span&gt;&lt;br style=&quot;border-color: var(--border-color); text-align: left;&quot;&gt;&lt;span style=&quot;text-align: left;&quot;&gt;askGameStart()&lt;/span&gt;&lt;br style=&quot;border-color: var(--border-color); text-align: left;&quot;&gt;&lt;span style=&quot;text-align: left;&quot;&gt;player1, storeIndex &amp;lt;= removeRandom(player1,storeIndex,RANDOMNUM)&lt;/span&gt;&lt;br style=&quot;border-color: var(--border-color); text-align: left;&quot;&gt;&lt;span style=&quot;text-align: left;&quot;&gt;currentColumn(storeIndex,GRIDSIZE)&lt;/span&gt;&lt;br style=&quot;border-color: var(--border-color); text-align: left;&quot;&gt;&lt;span style=&quot;text-align: left;&quot;&gt;layout(storeIndex,RANDOMNUM,GRIDSIZE,False)&lt;/span&gt;&lt;br style=&quot;border-color: var(--border-color); text-align: left;&quot;&gt;&lt;span style=&quot;text-align: left;&quot;&gt;printScore(GRIDSIZE,player1,player2)&lt;/span&gt;" style="rounded=0;whiteSpace=wrap;html=1;" vertex="1" parent="1">
          <mxGeometry x="52.5" y="310" width="410" height="230" as="geometry" />
        </mxCell>
        <mxCell id="QLFnJS7z-377dAU-om8l-5" value="input&lt;br&gt;GRIDSIZE" style="shape=parallelogram;perimeter=parallelogramPerimeter;whiteSpace=wrap;html=1;fixedSize=1;" vertex="1" parent="1">
          <mxGeometry x="197.5" y="190" width="120" height="60" as="geometry" />
        </mxCell>
        <mxCell id="QLFnJS7z-377dAU-om8l-6" value="" style="endArrow=classic;html=1;rounded=0;exitX=0.5;exitY=1;exitDx=0;exitDy=0;entryX=0.5;entryY=0;entryDx=0;entryDy=0;" edge="1" parent="1" source="QLFnJS7z-377dAU-om8l-5" target="QLFnJS7z-377dAU-om8l-3">
          <mxGeometry width="50" height="50" relative="1" as="geometry">
            <mxPoint x="490" y="280" as="sourcePoint" />
            <mxPoint x="540" y="230" as="targetPoint" />
          </mxGeometry>
        </mxCell>
        <mxCell id="QLFnJS7z-377dAU-om8l-7" value="" style="endArrow=classic;html=1;rounded=0;exitX=0.5;exitY=1;exitDx=0;exitDy=0;" edge="1" parent="1" source="QLFnJS7z-377dAU-om8l-3" target="QLFnJS7z-377dAU-om8l-8">
          <mxGeometry width="50" height="50" relative="1" as="geometry">
            <mxPoint x="200" y="540" as="sourcePoint" />
            <mxPoint x="540" y="530" as="targetPoint" />
          </mxGeometry>
        </mxCell>
        <mxCell id="QLFnJS7z-377dAU-om8l-8" value="while&amp;nbsp;&lt;br&gt;gameRunning" style="rhombus;whiteSpace=wrap;html=1;" vertex="1" parent="1">
          <mxGeometry x="202.5" y="600" width="110" height="110" as="geometry" />
        </mxCell>
        <mxCell id="QLFnJS7z-377dAU-om8l-9" value="" style="endArrow=classic;html=1;rounded=0;exitX=0.5;exitY=1;exitDx=0;exitDy=0;entryX=0.5;entryY=0;entryDx=0;entryDy=0;" edge="1" parent="1" source="QLFnJS7z-377dAU-om8l-8" target="QLFnJS7z-377dAU-om8l-11">
          <mxGeometry width="50" height="50" relative="1" as="geometry">
            <mxPoint x="490" y="670" as="sourcePoint" />
            <mxPoint x="540" y="620" as="targetPoint" />
          </mxGeometry>
        </mxCell>
        <mxCell id="QLFnJS7z-377dAU-om8l-14" value="" style="edgeStyle=orthogonalEdgeStyle;rounded=0;orthogonalLoop=1;jettySize=auto;html=1;" edge="1" parent="1" source="QLFnJS7z-377dAU-om8l-11" target="QLFnJS7z-377dAU-om8l-8">
          <mxGeometry relative="1" as="geometry" />
        </mxCell>
        <mxCell id="QLFnJS7z-377dAU-om8l-11" value="player2, storeIndex &amp;lt;= selectColumn(player2,storeIndex,RANDOMNUM,GRIDSIZE)&lt;br style=&quot;border-color: var(--border-color); text-align: left;&quot;&gt;&lt;span style=&quot;text-align: left;&quot;&gt;columnNum(GRIDSIZE)&lt;/span&gt;&lt;br style=&quot;border-color: var(--border-color); text-align: left;&quot;&gt;&lt;span style=&quot;text-align: left;&quot;&gt;layout(storeIndex,RANDOMNUM,GRIDSIZE,True)&lt;/span&gt;&lt;br style=&quot;border-color: var(--border-color); text-align: left;&quot;&gt;&lt;span style=&quot;text-align: left;&quot;&gt;printScore(GRIDSIZE,player1,player2)&lt;/span&gt;&lt;br style=&quot;border-color: var(--border-color); text-align: left;&quot;&gt;&lt;span style=&quot;text-align: left;&quot;&gt;gameRunning &amp;lt;= checkColumn(RANDOMNUM,GRIDSIZE)&lt;/span&gt;&lt;br style=&quot;border-color: var(--border-color); text-align: left;&quot;&gt;&lt;span style=&quot;text-align: left;&quot;&gt;gameRunning &amp;lt;= checkRow(RANDOMNUM,GRIDSIZE)&lt;/span&gt;" style="rounded=0;whiteSpace=wrap;html=1;" vertex="1" parent="1">
          <mxGeometry x="30" y="760" width="455" height="210" as="geometry" />
        </mxCell>
        <mxCell id="QLFnJS7z-377dAU-om8l-12" value="" style="endArrow=classic;html=1;rounded=0;exitX=1;exitY=0.601;exitDx=0;exitDy=0;exitPerimeter=0;" edge="1" parent="1" source="QLFnJS7z-377dAU-om8l-11" target="QLFnJS7z-377dAU-om8l-13">
          <mxGeometry width="50" height="50" relative="1" as="geometry">
            <mxPoint x="700" y="720" as="sourcePoint" />
            <mxPoint x="750" y="670" as="targetPoint" />
          </mxGeometry>
        </mxCell>
        <mxCell id="QLFnJS7z-377dAU-om8l-13" value="if gameRunning&lt;br&gt;== True" style="rhombus;whiteSpace=wrap;html=1;" vertex="1" parent="1">
          <mxGeometry x="600" y="830" width="110" height="110" as="geometry" />
        </mxCell>
        <mxCell id="QLFnJS7z-377dAU-om8l-15" value="True" style="text;html=1;align=center;verticalAlign=middle;resizable=0;points=[];autosize=1;strokeColor=none;fillColor=none;" vertex="1" parent="1">
          <mxGeometry x="245" y="715" width="50" height="30" as="geometry" />
        </mxCell>
        <mxCell id="QLFnJS7z-377dAU-om8l-17" value="" style="endArrow=classic;html=1;rounded=0;exitX=1;exitY=0.5;exitDx=0;exitDy=0;" edge="1" parent="1" source="QLFnJS7z-377dAU-om8l-13" target="QLFnJS7z-377dAU-om8l-18">
          <mxGeometry width="50" height="50" relative="1" as="geometry">
            <mxPoint x="830" y="810" as="sourcePoint" />
            <mxPoint x="880" y="760" as="targetPoint" />
          </mxGeometry>
        </mxCell>
        <mxCell id="QLFnJS7z-377dAU-om8l-18" value="player1, storeIndex &amp;lt;= selectRow(player1,storeIndex,RANDOMNUM,GRIDSIZE)&lt;br style=&quot;border-color: var(--border-color); text-align: left;&quot;&gt;&lt;span style=&quot;text-align: left;&quot;&gt;currentColumn(storeIndex,GRIDSIZE)&lt;/span&gt;&lt;br style=&quot;border-color: var(--border-color); text-align: left;&quot;&gt;&lt;span style=&quot;text-align: left;&quot;&gt;layout(storeIndex,RANDOMNUM,GRIDSIZE,False)&lt;/span&gt;&lt;br style=&quot;border-color: var(--border-color); text-align: left;&quot;&gt;&lt;span style=&quot;text-align: left;&quot;&gt;printScore(GRIDSIZE,player1,player2)&lt;/span&gt;&lt;br style=&quot;border-color: var(--border-color); text-align: left;&quot;&gt;&lt;span style=&quot;text-align: left;&quot;&gt;gameRunning &amp;lt;= checkColumn(RANDOMNUM,GRIDSIZE)&lt;/span&gt;&lt;br style=&quot;border-color: var(--border-color); text-align: left;&quot;&gt;&lt;span style=&quot;text-align: left;&quot;&gt;gameRunning &amp;lt;= checkRow(RANDOMNUM,GRIDSIZE)&lt;/span&gt;" style="rounded=0;whiteSpace=wrap;html=1;" vertex="1" parent="1">
          <mxGeometry x="820" y="795" width="440" height="180" as="geometry" />
        </mxCell>
        <mxCell id="QLFnJS7z-377dAU-om8l-19" value="True" style="text;html=1;align=center;verticalAlign=middle;resizable=0;points=[];autosize=1;strokeColor=none;fillColor=none;" vertex="1" parent="1">
          <mxGeometry x="715" y="865" width="50" height="30" as="geometry" />
        </mxCell>
        <mxCell id="QLFnJS7z-377dAU-om8l-20" value="" style="endArrow=classic;html=1;rounded=0;exitX=0.5;exitY=1;exitDx=0;exitDy=0;" edge="1" parent="1" source="QLFnJS7z-377dAU-om8l-13" target="QLFnJS7z-377dAU-om8l-21">
          <mxGeometry width="50" height="50" relative="1" as="geometry">
            <mxPoint x="510" y="870" as="sourcePoint" />
            <mxPoint x="560" y="820" as="targetPoint" />
          </mxGeometry>
        </mxCell>
        <mxCell id="QLFnJS7z-377dAU-om8l-21" value="" style="ellipse;whiteSpace=wrap;html=1;aspect=fixed;" vertex="1" parent="1">
          <mxGeometry x="645" y="1020" width="20" height="20" as="geometry" />
        </mxCell>
        <mxCell id="QLFnJS7z-377dAU-om8l-22" value="" style="endArrow=classic;html=1;rounded=0;exitX=0;exitY=0.5;exitDx=0;exitDy=0;" edge="1" parent="1" source="QLFnJS7z-377dAU-om8l-21" target="QLFnJS7z-377dAU-om8l-23">
          <mxGeometry width="50" height="50" relative="1" as="geometry">
            <mxPoint x="510" y="870" as="sourcePoint" />
            <mxPoint x="560" y="820" as="targetPoint" />
          </mxGeometry>
        </mxCell>
        <mxCell id="QLFnJS7z-377dAU-om8l-23" value="" style="ellipse;whiteSpace=wrap;html=1;aspect=fixed;" vertex="1" parent="1">
          <mxGeometry x="-50" y="1020" width="20" height="20" as="geometry" />
        </mxCell>
        <mxCell id="QLFnJS7z-377dAU-om8l-24" value="" style="endArrow=classic;html=1;rounded=0;exitX=0.5;exitY=0;exitDx=0;exitDy=0;" edge="1" parent="1" source="QLFnJS7z-377dAU-om8l-23" target="QLFnJS7z-377dAU-om8l-25">
          <mxGeometry width="50" height="50" relative="1" as="geometry">
            <mxPoint x="510" y="870" as="sourcePoint" />
            <mxPoint x="560" y="820" as="targetPoint" />
          </mxGeometry>
        </mxCell>
        <mxCell id="QLFnJS7z-377dAU-om8l-25" value="" style="ellipse;whiteSpace=wrap;html=1;aspect=fixed;" vertex="1" parent="1">
          <mxGeometry x="-50" y="645" width="20" height="20" as="geometry" />
        </mxCell>
        <mxCell id="QLFnJS7z-377dAU-om8l-26" value="" style="endArrow=classic;html=1;rounded=0;exitX=1;exitY=0.5;exitDx=0;exitDy=0;entryX=0;entryY=0.5;entryDx=0;entryDy=0;" edge="1" parent="1" source="QLFnJS7z-377dAU-om8l-25" target="QLFnJS7z-377dAU-om8l-8">
          <mxGeometry width="50" height="50" relative="1" as="geometry">
            <mxPoint x="510" y="870" as="sourcePoint" />
            <mxPoint x="560" y="820" as="targetPoint" />
          </mxGeometry>
        </mxCell>
        <mxCell id="QLFnJS7z-377dAU-om8l-27" value="False" style="text;html=1;align=center;verticalAlign=middle;resizable=0;points=[];autosize=1;strokeColor=none;fillColor=none;" vertex="1" parent="1">
          <mxGeometry x="645" y="955" width="50" height="30" as="geometry" />
        </mxCell>
        <mxCell id="QLFnJS7z-377dAU-om8l-28" value="" style="endArrow=classic;html=1;rounded=0;exitX=1;exitY=0.5;exitDx=0;exitDy=0;" edge="1" parent="1" source="QLFnJS7z-377dAU-om8l-8" target="QLFnJS7z-377dAU-om8l-29">
          <mxGeometry width="50" height="50" relative="1" as="geometry">
            <mxPoint x="510" y="570" as="sourcePoint" />
            <mxPoint x="560" y="520" as="targetPoint" />
          </mxGeometry>
        </mxCell>
        <mxCell id="QLFnJS7z-377dAU-om8l-29" value="if player1 &amp;gt; player2" style="rhombus;whiteSpace=wrap;html=1;" vertex="1" parent="1">
          <mxGeometry x="540" y="600" width="110" height="110" as="geometry" />
        </mxCell>
        <mxCell id="QLFnJS7z-377dAU-om8l-30" value="" style="endArrow=classic;html=1;rounded=0;exitX=0.5;exitY=0;exitDx=0;exitDy=0;" edge="1" parent="1" source="QLFnJS7z-377dAU-om8l-29" target="QLFnJS7z-377dAU-om8l-31">
          <mxGeometry width="50" height="50" relative="1" as="geometry">
            <mxPoint x="510" y="570" as="sourcePoint" />
            <mxPoint x="560" y="520" as="targetPoint" />
          </mxGeometry>
        </mxCell>
        <mxCell id="QLFnJS7z-377dAU-om8l-31" value="Output&lt;br&gt;plater1 win" style="shape=parallelogram;perimeter=parallelogramPerimeter;whiteSpace=wrap;html=1;fixedSize=1;" vertex="1" parent="1">
          <mxGeometry x="535" y="480" width="120" height="60" as="geometry" />
        </mxCell>
        <mxCell id="QLFnJS7z-377dAU-om8l-32" value="" style="endArrow=classic;html=1;rounded=0;exitX=1;exitY=0.5;exitDx=0;exitDy=0;" edge="1" parent="1" source="QLFnJS7z-377dAU-om8l-29" target="QLFnJS7z-377dAU-om8l-33">
          <mxGeometry width="50" height="50" relative="1" as="geometry">
            <mxPoint x="510" y="570" as="sourcePoint" />
            <mxPoint x="560" y="520" as="targetPoint" />
          </mxGeometry>
        </mxCell>
        <mxCell id="QLFnJS7z-377dAU-om8l-35" value="False" style="edgeLabel;html=1;align=center;verticalAlign=middle;resizable=0;points=[];" vertex="1" connectable="0" parent="QLFnJS7z-377dAU-om8l-32">
          <mxGeometry x="-0.3467" y="4" relative="1" as="geometry">
            <mxPoint as="offset" />
          </mxGeometry>
        </mxCell>
        <mxCell id="QLFnJS7z-377dAU-om8l-33" value="Output&lt;br&gt;player2 win" style="shape=parallelogram;perimeter=parallelogramPerimeter;whiteSpace=wrap;html=1;fixedSize=1;" vertex="1" parent="1">
          <mxGeometry x="730" y="625" width="120" height="60" as="geometry" />
        </mxCell>
        <mxCell id="QLFnJS7z-377dAU-om8l-34" value="True" style="text;html=1;align=center;verticalAlign=middle;resizable=0;points=[];autosize=1;strokeColor=none;fillColor=none;" vertex="1" parent="1">
          <mxGeometry x="585" y="555" width="50" height="30" as="geometry" />
        </mxCell>
        <mxCell id="QLFnJS7z-377dAU-om8l-36" value="" style="endArrow=classic;html=1;rounded=0;exitX=1;exitY=0.5;exitDx=0;exitDy=0;" edge="1" parent="1" source="QLFnJS7z-377dAU-om8l-31" target="QLFnJS7z-377dAU-om8l-37">
          <mxGeometry width="50" height="50" relative="1" as="geometry">
            <mxPoint x="510" y="560" as="sourcePoint" />
            <mxPoint x="560" y="510" as="targetPoint" />
          </mxGeometry>
        </mxCell>
        <mxCell id="QLFnJS7z-377dAU-om8l-37" value="" style="ellipse;whiteSpace=wrap;html=1;aspect=fixed;" vertex="1" parent="1">
          <mxGeometry x="780" y="500" width="20" height="20" as="geometry" />
        </mxCell>
        <mxCell id="QLFnJS7z-377dAU-om8l-38" value="" style="endArrow=classic;html=1;rounded=0;exitX=0.5;exitY=0;exitDx=0;exitDy=0;entryX=0.5;entryY=1;entryDx=0;entryDy=0;" edge="1" parent="1" source="QLFnJS7z-377dAU-om8l-33" target="QLFnJS7z-377dAU-om8l-37">
          <mxGeometry width="50" height="50" relative="1" as="geometry">
            <mxPoint x="510" y="560" as="sourcePoint" />
            <mxPoint x="560" y="510" as="targetPoint" />
          </mxGeometry>
        </mxCell>
        <mxCell id="QLFnJS7z-377dAU-om8l-39" value="" style="endArrow=classic;html=1;rounded=0;exitX=0.5;exitY=0;exitDx=0;exitDy=0;" edge="1" parent="1" source="QLFnJS7z-377dAU-om8l-37" target="QLFnJS7z-377dAU-om8l-40">
          <mxGeometry width="50" height="50" relative="1" as="geometry">
            <mxPoint x="510" y="560" as="sourcePoint" />
            <mxPoint x="560" y="510" as="targetPoint" />
          </mxGeometry>
        </mxCell>
        <mxCell id="QLFnJS7z-377dAU-om8l-40" value="End" style="ellipse;whiteSpace=wrap;html=1;" vertex="1" parent="1">
          <mxGeometry x="730" y="340" width="120" height="80" as="geometry" />
        </mxCell>
      </root>
    </mxGraphModel>
  </diagram>
</mxfile>
